<?xml version="1.0" standalone="no"?>
<!DOCTYPE svg PUBLIC "-//W3C//DTD SVG 1.1//EN" "http://www.w3.org/Graphics/SVG/1.1/DTD/svg11.dtd" >
<svg>
<metadata>
Created by FontForge 20110222 at Fri Sep 11 20:37:30 2015
 By www-data
Copyright (C) 1996-2005, Hoefler &#38; Frere-Jones, Inc. www.typography.com
</metadata>
<defs>
<font id="MercuryDisplay-SemiItalic" horiz-adv-x="500" >
  <font-face 
    font-family="Mercury Display"
    font-weight="600"
    font-style="italic"
    font-stretch="normal"
    units-per-em="1000"
    panose-1="2 0 8 3 8 0 0 9 0 3"
    ascent="800"
    descent="-200"
    x-height="466"
    cap-height="637"
    bbox="-159 -257 977 904.722"
    underline-thickness="28"
    underline-position="-86"
    slope="-12"
    unicode-range="U+0020-FB02"
  />
<missing-glyph 
 />
    <glyph glyph-name=".notdef" 
 />
    <glyph glyph-name="NUL" horiz-adv-x="0" 
 />
    <glyph glyph-name="nonmarkingreturn" horiz-adv-x="200" 
 />
    <glyph glyph-name="space" unicode=" " horiz-adv-x="200" 
 />
    <glyph glyph-name="ring" unicode="&#x2da;" horiz-adv-x="263" 
d="M175 510q25 0 45 9t33.5 24t21 33.5t7.5 38.5q0 35 -22.5 58t-62.5 23q-26 0 -45.5 -9t-33.5 -24t-21 -34t-7 -38q0 -35 22.5 -58t62.5 -23zM178 531q-14 0 -23 12.5t-9 40.5q0 14 2.5 30t8 29.5t14.5 22.5t23 9t23 -12.5t9 -40.5q0 -14 -2.5 -30t-8.5 -29.5t-15 -22.5
t-22 -9z" />
    <glyph glyph-name="hungarumlaut" unicode="&#x2dd;" horiz-adv-x="331" 
d="M81 517q41 34 81.5 67.5t61.5 57.5q17 20 17.5 40.5t-14.5 31.5t-36.5 3.5t-35.5 -27.5q-19 -26 -41 -71.5t-45 -93.5zM216 517l44 34t41.5 33t35.5 30t27 26q17 20 19.5 41t-13.5 32q-15 11 -36 4.5t-36 -26.5q-20 -26 -44 -71.5t-49 -93.5z" />
    <glyph glyph-name="ogonek" unicode="&#x2db;" horiz-adv-x="273" 
d="M52 -257q36 0 63 19t40 44l-10 9q-8 -7 -22 -15t-30 -8q-69 0 -69 67q0 24 9.5 46t27 43t41.5 42.5t54 44.5l-8 12q-96 -49 -147.5 -100t-51.5 -108q0 -41 27.5 -68.5t75.5 -27.5z" />
    <glyph glyph-name="caron" unicode="&#x2c7;" horiz-adv-x="313" 
d="M181 522h17l160 179l-13 13l-139 -87l-101 87l-15 -11z" />
    <glyph glyph-name="dotlessi" unicode="&#x131;" horiz-adv-x="275" 
d="M118 -11q30 0 66.5 13t70.5 34l-2 7q-34 1 -53.5 3.5t-29 8.5t-11 16.5t1.5 26.5l67 371l-4 3l-180 -50v-10l65 -41l-52 -286q-9 -45 5 -70.5t56 -25.5z" />
    <glyph glyph-name="fi" unicode="&#xfb01;" horiz-adv-x="549" 
d="M-35 -219q29 0 57.5 12.5t54.5 38.5q22 22 39 48t30 57.5t22.5 71.5t16.5 91l41 297h163l-58 -312q-8 -45 6 -70.5t56 -25.5q29 0 65.5 13t71.5 34l-2 7q-34 1 -54 3.5t-29.5 8.5t-11 16.5t1.5 26.5l67 371l-4 3l-74 -24h-191l4 28q17 117 50 174.5t89 57.5q11 0 19 -4
q0 -60 23.5 -89t54.5 -29q25 0 41 16.5t16 39.5q0 15 -7.5 32.5t-24.5 32t-44 24.5t-65 10q-42 0 -78.5 -13t-68.5 -41q-43 -37 -68.5 -89.5t-36.5 -123.5l-3 -20l-112 -39l-3 -18h106l-57 -407q-9 -65 -19 -102.5t-22 -57.5q-17 32 -40.5 50t-52.5 18q-26 0 -41.5 -15.5
t-15.5 -38.5q0 -26 24 -44.5t64 -18.5z" />
    <glyph glyph-name="fl" unicode="&#xfb02;" horiz-adv-x="549" 
d="M-35 -219q29 0 57.5 12.5t54.5 38.5q22 22 39 48t30 57.5t22.5 71.5t16.5 91l41 297h159l-52 -312q-8 -45 5.5 -70.5t55.5 -25.5q29 0 66 13t70 34l-2 7q-34 1 -53.5 3.5t-29 8.5t-10.5 16.5t2 26.5l106 642l-4 3l-75 -22q-15 9 -34.5 14.5t-43.5 5.5q-81 0 -144 -57
q-42 -35 -68 -86.5t-37 -123.5l-3 -20l-112 -39l-3 -18h106l-57 -407q-9 -65 -19 -102.5t-22 -57.5q-17 32 -40.5 50t-52.5 18q-26 0 -41.5 -15.5t-15.5 -38.5q0 -26 24 -44.5t64 -18.5zM233 448l4 28q9 65 21.5 108.5t28 69.5t34 37t39.5 13q4 0 7.5 -1t5.5 -2
q0 -38 13 -62t34 -35l-26 -156h-161z" />
    <glyph glyph-name="exclam" unicode="!" horiz-adv-x="271" 
d="M137 181q18 60 37.5 122.5t36.5 118t28 99t11 66.5q0 35 -18 50.5t-47 15.5q-53 0 -64 -67q-4 -23 -5.5 -66t-2.5 -98t-1.5 -116.5t-1.5 -119.5zM103 -16q27 0 46 19.5t19 46.5t-19 46t-46 19t-46.5 -19t-19.5 -46t19.5 -46.5t46.5 -19.5z" />
    <glyph glyph-name="quotedbl" unicode="&#x22;" horiz-adv-x="332" 
d="M214 435l54 63q30 37 45.5 56.5t23.5 34.5q5 7 6.5 14t1.5 13q0 15 -10.5 25.5t-27.5 10.5q-26 0 -42 -31q-8 -16 -16.5 -41t-21.5 -63l-25 -76zM83 435l53 63q30 37 45 56.5t23 34.5q8 12 8 26q0 16 -10.5 26.5t-27.5 10.5q-28 0 -42 -31q-8 -16 -16.5 -41.5
l-21.5 -64.5l-23 -74z" />
    <glyph glyph-name="numbersign" unicode="#" horiz-adv-x="579" 
d="M159 45l41 150h128l-40 -137l42 -13l41 150h140v40h-129l17 64l21 69h122v40h-110l43 146l-41 13l-45 -159h-128l44 146l-42 13l-44 -159h-138v-40h127l-16 -57l-23 -76h-119v-40h108l-41 -137zM210 235l18 64l21 69h129l-15 -57l-23 -76h-130z" />
    <glyph glyph-name="dollar" unicode="$" horiz-adv-x="516" 
d="M205 -100l17 86q48 0 90 15t73.5 42t49.5 64.5t18 82.5q0 37 -14.5 63.5t-37.5 46.5t-51 35.5t-55 30.5l45 218q30 -14 52 -49.5t43 -101.5l19 2l20 146q-20 13 -54 25t-72 17l15 69l-37 7l-13 -73q-47 1 -87.5 -13.5t-70.5 -41t-47 -62.5t-17 -79q0 -36 13.5 -62
t35.5 -46.5t48.5 -36t53.5 -30.5l-48 -230q-40 14 -70.5 57.5t-53.5 124.5l-18 -2l-26 -174q24 -13 67.5 -25.5t92.5 -17.5l-2.5 -13t-6 -28t-6 -27.5l-2.5 -12.5zM267 382q-30 19 -51 43t-21 61q0 25 9 46.5t24 35.5t35 21t43 4zM228 19l41 221q34 -20 57.5 -45.5
t23.5 -64.5q0 -54 -33.5 -85t-88.5 -26z" />
    <glyph glyph-name="percent" unicode="%" horiz-adv-x="689" 
d="M183 303q39 0 72 16.5t57 44.5t37.5 63.5t13.5 73.5q0 62 -33 94.5t-90 32.5q-39 0 -72 -16.5t-57 -44.5t-37.5 -63.5t-13.5 -73.5q0 -62 33 -94.5t90 -32.5zM101 -29l262 326l265 321l-28 23l-262 -327l-265 -321zM462 -16q39 0 72 16.5t57 44.5t37.5 63.5t13.5 73.5
q0 62 -33 94.5t-90 32.5q-39 0 -72 -16.5t-57 -44.5t-37.5 -63.5t-13.5 -73.5q0 -62 33 -94.5t90 -32.5zM198 327q-26 0 -41 24.5t-15 71.5q0 28 5 60t15 59t26 44.5t37 17.5q26 0 41 -24.5t15 -71.5q0 -28 -5 -60t-15.5 -59t-26 -44.5t-36.5 -17.5zM477 8q-26 0 -41 24.5
t-15 71.5q0 28 5 60t15 59t26 44.5t37 17.5q26 0 41 -24.5t15 -71.5q0 -28 -5 -60t-15.5 -59t-26 -44.5t-36.5 -17.5z" />
    <glyph glyph-name="ampersand" unicode="&#x26;" horiz-adv-x="665" 
d="M199 -11q57 0 101.5 23.5t79.5 61.5l4 -2q-1 -43 19.5 -63.5t70.5 -20.5q38 0 78.5 16t75.5 36v14q-33 -3 -56 -3q-52 0 -70 15q-11 9 -12.5 26t3.5 45l32 183h121l9 51h-121l20 114l-21 6l-83 -93l-122 -50q-52 9 -82.5 39t-30.5 80q0 43 17 79t46 50q17 -42 44 -62.5
t55 -20.5q29 0 44.5 16t15.5 38q0 24 -25 44.5t-77 20.5q-43 0 -84.5 -14.5t-73.5 -39.5t-52 -57.5t-20 -68.5q0 -45 27 -78.5t81 -49.5v-4q-91 -22 -140.5 -70t-49.5 -114q0 -33 13.5 -60.5t37.5 -46.5t56 -29.5t69 -10.5zM269 65q-61 0 -90 27.5t-29 78.5q0 23 8 46.5
t24.5 43.5t41.5 35.5t60 23.5h140l-38 -218q-59 -37 -117 -37z" />
    <glyph glyph-name="quotesingle" unicode="'" horiz-adv-x="199" 
d="M82 435l54 63q30 37 45 56.5t23 34.5q8 12 8 27q0 14 -10.5 25t-27.5 11q-12 0 -23 -8t-19 -23q-8 -16 -16.5 -41t-21.5 -64l-24 -75z" />
    <glyph glyph-name="parenleft" unicode="(" horiz-adv-x="346" 
d="M306 -176l12 19q-80 49 -122 139t-42 205q0 82 19.5 164.5t57.5 154.5t94.5 129t130.5 87l-4 19q-90 -29 -163 -81.5t-124.5 -121.5t-79.5 -152t-28 -171q0 -68 18 -128.5t51 -111t78.5 -89t101.5 -62.5z" />
    <glyph glyph-name="parenright" unicode=")" horiz-adv-x="346" 
d="M-110 -176q90 28 163 81t124 122t79 151.5t28 171.5q0 68 -18 128.5t-50.5 111t-78.5 89t-102 62.5l-11 -19q80 -49 122 -139t42 -205q0 -82 -19.5 -164.5t-58 -154.5t-95 -129t-130.5 -87z" />
    <glyph glyph-name="asterisk" unicode="*" horiz-adv-x="344" 
d="M183 335q12 6 20.5 17t11.5 30q3 17 1 36.5t-7 48.5l4 2q15 -25 27 -41t26 -27q28 -22 56 -13l8 11q1 13 -5 26t-20 24q-13 11 -31.5 20t-45.5 17l1 5q29 1 49 3.5t36 8.5q17 7 26 17.5t13 23.5l-5 13q-11 8 -25.5 10t-31.5 -5q-16 -7 -32.5 -18t-37.5 -31l-4 4
q14 24 21.5 43t10.5 36q3 18 -1.5 31.5t-14.5 22.5l-14 2q-12 -5 -20.5 -16.5t-10.5 -29.5q-6 -32 6 -86l-5 -2q-28 48 -53 68q-29 20 -54 13l-9 -10q-2 -14 3.5 -27.5t20.5 -24.5q25 -20 77 -37l-1 -5q-55 0 -84 -11q-17 -6 -26.5 -17.5t-12.5 -24.5l5 -12q11 -8 25 -10
t31 5q17 6 33.5 17.5t37.5 31.5l4 -4q-28 -48 -32 -79q-3 -18 1.5 -31.5t14.5 -22.5z" />
    <glyph glyph-name="plus" unicode="+" horiz-adv-x="505" 
d="M463 281l8 51h-182l28 182h-52l-28 -182h-184l-8 -51h184l-30 -185h52l30 185h182z" />
    <glyph glyph-name="comma" unicode="," horiz-adv-x="229" 
d="M30 -134q72 33 101.5 75t29.5 84q0 40 -20 65t-55 25q-28 0 -47 -20t-19 -47q0 -23 15 -39t38 -16h8t8 2l19 5l2 -2q-7 -24 -26 -52t-64 -67z" />
    <glyph glyph-name="hyphen" unicode="-" horiz-adv-x="334" 
d="M34 203h237l11 69h-236z" />
    <glyph glyph-name="period" unicode="." horiz-adv-x="213" 
d="M88 -16q27 0 46 19.5t19 46.5t-19 46t-46 19q-28 0 -47 -19t-19 -46t19 -46.5t47 -19.5z" />
    <glyph glyph-name="slash" unicode="/" horiz-adv-x="349" 
d="M-67 -211l274 468l279 468l-33 17l-275 -469l-279 -466z" />
    <glyph glyph-name="zero" unicode="0" horiz-adv-x="551" 
d="M233 -16q65 0 118.5 33.5t92 90t60 129.5t21.5 152q0 49 -12 92.5t-36.5 76t-61.5 51.5t-87 19q-65 0 -118.5 -33.5t-92 -89.5t-60 -129.5t-21.5 -152.5q0 -49 12 -92.5t36.5 -76t61.5 -51.5t87 -19zM250 17q-50 0 -73 49t-23 129q0 67 11 138t31.5 129.5t49.5 96
t65 37.5q49 0 72.5 -49.5t23.5 -129.5q0 -67 -11 -137.5t-31.5 -129t-49.5 -96t-65 -37.5z" />
    <glyph glyph-name="one" unicode="1" horiz-adv-x="386" 
d="M-4 0h323l3 16l-102 39l89 563l-3 3l-216 -33l-2 -12l102 -47l-76 -474l-116 -39z" />
    <glyph glyph-name="two" unicode="2" horiz-adv-x="489" 
d="M-16 0h396l60 183l-11 3l-89 -90h-214l-2 5q82 59 141.5 109t98.5 95t58 87t19 85q0 31 -11 59t-31 48t-49.5 32t-65.5 12q-60 0 -113 -35.5t-97 -104.5l8 -12q41 34 76 49t67 15q48 0 73.5 -26.5t25.5 -73.5q0 -40 -24 -93t-87 -120q-54 -58 -108.5 -107t-123.5 -100z
" />
    <glyph glyph-name="three" unicode="3" horiz-adv-x="461" 
d="M171 -16q53 0 96.5 16.5t74 44.5t47.5 63.5t17 73.5q0 46 -29.5 88t-93.5 66v7q77 32 110.5 72t33.5 90q0 25 -9.5 47t-27 39t-43.5 27t-59 10q-67 0 -117.5 -35t-89.5 -92l9 -11q44 31 76.5 43t66.5 12q44 0 66 -22t22 -58q0 -19 -7 -39t-26.5 -40t-55.5 -40t-93 -38
l-1 -11q89 -20 127 -62t38 -94q0 -58 -33 -91.5t-84 -33.5q-23 0 -41 7t-32 18q9 22 9.5 44t-6 39t-21.5 28t-37 11q-26 0 -44.5 -19t-18.5 -49q0 -23 12 -43t34.5 -35t55 -24t74.5 -9z" />
    <glyph glyph-name="four" unicode="4" horiz-adv-x="527" 
d="M130 0h311l2 16l-95 39l19 122h105l12 75h-105l59 368l-15 8l-413 -434l5 -17h245l-20 -122l-107 -39zM104 252l200 213h2l-34 -213h-168z" />
    <glyph glyph-name="five" unicode="5" horiz-adv-x="470" 
d="M193 -16q51 0 92.5 17.5t71 47t45.5 67t16 76.5q0 88 -67.5 141t-216.5 73l24 106h269l28 140l-10 4l-41 -44h-260l-66 -298q68 -9 113.5 -24.5t72.5 -37t38.5 -48.5t11.5 -58q0 -60 -30 -95t-78 -35q-24 0 -43 8.5t-33 19.5q10 24 12 46.5t-5 40t-22 28t-37 10.5
q-27 0 -45.5 -19t-18.5 -51q0 -24 13.5 -45t37.5 -36.5t57 -24.5t71 -9z" />
    <glyph glyph-name="six" unicode="6" horiz-adv-x="498" 
d="M228 -14q52 0 94.5 21t72.5 55t46.5 77.5t16.5 88.5q0 37 -12 68.5t-33.5 54t-52 35t-66.5 12.5q-25 0 -52 -7t-48 -18l-4 4q36 69 103 132t178 110l-5 20q-106 -21 -186.5 -65.5t-135 -104t-82 -128.5t-27.5 -139q0 -46 12 -85.5t36.5 -68.5t60.5 -45.5t84 -16.5z
M237 13q-42 0 -66.5 49t-24.5 129q0 42 8 80.5t22 72.5q12 5 27.5 7t28.5 2q57 0 84.5 -39t27.5 -108q0 -34 -7 -68.5t-21 -62t-34 -45t-45 -17.5z" />
    <glyph glyph-name="seven" unicode="7" horiz-adv-x="448" 
d="M24 -15h101l367 618l-5 9h-345l-20 31l-9 -3l-49 -184l11 -3l57 59h262l-194 -283z" />
    <glyph glyph-name="eight" unicode="8" horiz-adv-x="479" 
d="M214 -16q46 0 84.5 14.5t66 39t43 57.5t15.5 70q0 30 -10 54.5t-25.5 45t-35.5 38t-41 32.5q76 23 111 63.5t35 91.5q0 29 -13 54.5t-36 44t-55.5 29.5t-72.5 11q-43 0 -79 -14.5t-62 -39.5t-40.5 -58t-14.5 -69q0 -27 7.5 -49.5t20.5 -41t29.5 -34t34.5 -28.5
q-74 -21 -114 -65t-40 -99q0 -32 14 -59t39 -46.5t60.5 -30.5t78.5 -11zM292 349q-21 15 -41 30.5t-35 32.5t-24 37.5t-9 45.5q0 45 26 75t67 30q42 0 66.5 -27t24.5 -72q0 -42 -19 -82t-56 -70zM223 12q-51 0 -78 34t-27 85q0 47 18 83.5t56 68.5q25 -18 47.5 -35.5
t39.5 -37t27.5 -43t10.5 -52.5q0 -49 -26.5 -76t-67.5 -27z" />
    <glyph glyph-name="nine" unicode="9" horiz-adv-x="498" 
d="M48 -26q106 24 186.5 70t135 105.5t82 127t27.5 134.5q0 48 -12.5 87.5t-36.5 68t-60.5 44.5t-84.5 16q-52 0 -94 -20t-72 -53t-46 -75t-16 -87q0 -38 12.5 -69t35 -53t53 -34.5t67.5 -12.5q25 0 51 7.5t47 18.5l4 -4q-38 -77 -108.5 -140.5t-175.5 -110.5zM285 269
q-57 0 -86 36t-29 102q0 36 8 71t22 62t34.5 43.5t46.5 16.5q21 0 37.5 -13t27.5 -36.5t16.5 -55t5.5 -67.5q0 -80 -28 -151q-12 -5 -27 -6.5t-28 -1.5z" />
    <glyph glyph-name="colon" unicode=":" horiz-adv-x="228" 
d="M130 286q28 0 47 19t19 46t-19 46t-47 19q-27 0 -46 -19t-19 -46t19 -46t46 -19zM82 -16q28 0 47 19.5t19 46.5t-19 46t-47 19q-27 0 -46 -19t-19 -46t19 -46.5t46 -19.5z" />
    <glyph glyph-name="semicolon" unicode=";" horiz-adv-x="233" 
d="M132 286q27 0 46 19t19 46t-19 46t-46 19q-28 0 -47 -19t-19 -46t19 -46t47 -19zM26 -134q72 33 101.5 75t29.5 84q0 40 -20.5 65t-55.5 25q-28 0 -46.5 -20t-18.5 -47q0 -23 15 -39t38 -16h8t8 2l19 5l2 -2q-8 -24 -26.5 -52t-63.5 -67z" />
    <glyph glyph-name="less" unicode="&#x3c;" horiz-adv-x="505" 
d="M390 113l19 46l-266 144l312 147l-3 52l-372 -179l-5 -33z" />
    <glyph glyph-name="equal" unicode="=" horiz-adv-x="505" 
d="M69 370h392l8 50h-392zM41 191h392l8 51h-392z" />
    <glyph glyph-name="greater" unicode="&#x3e;" horiz-adv-x="505" 
d="M72 113l372 178l5 33l-315 178l-19 -47l265 -144l-311 -147z" />
    <glyph glyph-name="question" unicode="?" horiz-adv-x="402" 
d="M193 174q20 0 38.5 4t32.5 11l-2 11q-42 -2 -69.5 10.5t-27.5 42.5q0 29 25.5 44t75.5 35q27 10 52 22.5t44.5 30t31.5 42.5t12 61t-14.5 66t-40.5 52t-61.5 34t-76.5 12q-70 0 -111 -27.5t-41 -69.5q0 -30 19 -47t43 -17q28 0 45 20.5t17 50.5q0 23 -10 44q20 13 48 13
q45 0 70.5 -25t25.5 -67q0 -20 -8.5 -35.5t-23.5 -29t-37 -25.5t-49 -25t-50.5 -26t-41 -29t-27 -35.5t-9.5 -45.5q0 -25 9.5 -44t26 -32t38.5 -19.5t46 -6.5zM135 -16q27 0 46 19.5t19 46.5t-19 46t-46 19t-46.5 -19t-19.5 -46t19.5 -46.5t46.5 -19.5z" />
    <glyph glyph-name="at" unicode="@" horiz-adv-x="848" 
d="M432 -160q77 0 146.5 25t122.5 70l-8 12q-105 -55 -227 -55q-73 0 -134 22t-105.5 63.5t-69 101.5t-24.5 136q0 80 24 146t66 113t99 73t123 26q72 0 125.5 -24t89.5 -64t54 -91t18 -106q0 -51 -10 -92t-28 -70t-43 -44.5t-55 -15.5q-16 0 -25 6.5t-13.5 17t-5 24.5
t2.5 28l50 283l-6 2l-42 -24q-16 9 -31.5 12.5t-31.5 3.5q-48 0 -91.5 -23t-76.5 -59t-53 -81.5t-20 -90.5q0 -62 30 -95.5t73 -33.5q35 0 61 17t49 46l4 -2q2 -32 26.5 -50t67.5 -18q52 0 96 23t76 62t50 89.5t18 105.5q0 57 -22 111t-64.5 96t-103.5 67.5t-139 25.5
q-87 0 -163.5 -32t-134 -87.5t-91 -129.5t-33.5 -158q0 -90 31.5 -158t84 -113t121 -68t142.5 -23zM406 93q-32 0 -49 23.5t-17 68.5q0 33 7.5 67.5t20.5 62t31 45.5t40 18q39 0 69 -42l-36 -212q-17 -14 -31.5 -22.5t-34.5 -8.5z" />
    <glyph glyph-name="A" unicode="A" horiz-adv-x="632" 
d="M-47 0h205l3 17l-72 28l88 178h192l36 -185l-92 -21l-2 -17h297l3 17l-77 26l-132 600h-52l-320 -596l-74 -30zM195 259l119 242h1l47 -242h-167z" />
    <glyph glyph-name="B" unicode="B" horiz-adv-x="618" 
d="M-10 0h309q63 0 112.5 14t84 39t52.5 58.5t18 71.5q0 57 -38.5 98.5t-129.5 54.5l1 5q86 11 135.5 52.5t49.5 106.5q0 28 -11 53t-37 44t-68 29.5t-104 10.5h-272l-3 -17l89 -21l-89 -561l-96 -21zM260 348l41 256q8 2 25 2h28q54 -1 79.5 -28t25.5 -78q0 -67 -38 -109.5
t-114 -42.5h-47zM279 29q-21 0 -37 2t-30 5l44 280h46q72 0 102.5 -32.5t30.5 -87.5q0 -36 -10 -66.5t-30 -53t-49 -35t-67 -12.5z" />
    <glyph glyph-name="C" unicode="C" horiz-adv-x="644" 
d="M357 -15q50 0 99.5 10.5t91.5 30.5l31 168l-12 4l-130 -166q-30 -10 -68 -10q-36 0 -70.5 14t-61.5 43t-43 73.5t-16 104.5q0 70 16.5 136t45.5 117t70 81.5t91 30.5q31 0 57 -9.5t48 -32t41.5 -59.5t38.5 -91l20 2l28 223h-15l-50 -39q-29 15 -71 25.5t-96 10.5
q-77 0 -143 -30.5t-114 -82t-75 -119.5t-27 -143q0 -72 25 -127t68 -91.5t100 -55t121 -18.5z" />
    <glyph glyph-name="D" unicode="D" horiz-adv-x="703" 
d="M-10 0h274q101 0 178.5 29t130 79t79.5 117t27 143q0 64 -23 114t-64 84.5t-99 52.5t-128 18h-273l-3 -17l89 -21l-89 -561l-96 -21zM211 35l90 568l55 -1q50 -1 86 -17.5t59.5 -45t34.5 -67t11 -84.5q0 -63 -15 -125t-48 -111.5t-84.5 -80.5t-124.5 -34z" />
    <glyph glyph-name="E" unicode="E" horiz-adv-x="631" 
d="M-10 0h541l51 200l-14 6l-104 -109q-14 -15 -27 -25.5t-26.5 -18t-30 -11.5t-37.5 -4l-132 -3l43 267h31q48 0 70 -20.5t30 -70.5l5 -31h16l45 279h-18l-13 -28q-25 -51 -54 -72.5t-77 -21.5h-30l42 266l93 -2q24 -1 40 -4.5t28 -11.5t22 -20t22 -30l67 -97l16 6l4 193
h-501l-3 -17l89 -21l-89 -561l-96 -21z" />
    <glyph glyph-name="F" unicode="F" horiz-adv-x="595" 
d="M-10 0h315l2 17l-95 21l40 254h42q48 0 70 -20t30 -70l4 -31h17l44 279h-17l-14 -28q-25 -51 -53.5 -73t-77.5 -22h-39l43 276l94 -2q23 -1 38.5 -4.5t27.5 -11.5t22.5 -20t22.5 -30l67 -97l16 6l4 193h-501l-3 -17l89 -21l-89 -561l-96 -21z" />
    <glyph glyph-name="G" unicode="G" horiz-adv-x="685" 
d="M305 -16q47 0 85 15t75 41l75 -50l14 4l42 262l70 22l3 16h-274l-3 -16l87 -23l-37 -202q-31 -16 -77 -16q-38 0 -71.5 14t-59 42.5t-40.5 71.5t-15 102q0 69 16.5 133t46 113.5t69.5 79t88 29.5q63 0 106.5 -47t80.5 -151l21 2l31 229h-16l-51 -40q-32 17 -73 27t-93 10
q-78 0 -144 -31.5t-114 -85t-75.5 -123.5t-27.5 -146q0 -63 19 -115t53.5 -89t82.5 -57.5t106 -20.5z" />
    <glyph glyph-name="H" unicode="H" horiz-adv-x="780" 
d="M-10 0h304l3 17l-85 21l43 273h280l-43 -273l-92 -21l-3 -17h304l3 17l-89 21l89 561l96 21l3 17h-304l-3 -17l85 -21l-39 -249h-281l40 249l92 21l3 17h-304l-3 -17l89 -21l-89 -561l-96 -21z" />
    <glyph glyph-name="I" unicode="I" horiz-adv-x="402" 
d="M1 0h312l2 17l-91 21l89 561l98 21l3 17h-312l-2 -17l91 -21l-89 -561l-98 -21z" />
    <glyph glyph-name="J" unicode="J" horiz-adv-x="511" 
d="M135 -19q55 0 98 17t75 45q32 29 49.5 71t28.5 109l60 376l96 21l3 17h-312l-3 -17l94 -21l-66 -415q-7 -44 -17 -74.5t-26.5 -50.5t-41.5 -30t-62 -11q14 27 16.5 52.5t-5.5 45.5t-25.5 32.5t-41.5 12.5q-30 0 -49.5 -22.5t-19.5 -54.5q0 -19 8 -37.5t25.5 -33t46 -23.5
t69.5 -9z" />
    <glyph glyph-name="K" unicode="K" horiz-adv-x="683" 
d="M-10 0h304l2 17l-84 21l41 259h51l130 -255l-63 -25l-3 -17h271l2 17l-71 32l-177 315l219 217l100 39l3 17h-236l-2 -13l64 -40l-221 -247h-61l42 262l92 21l3 17h-304l-3 -17l89 -21l-89 -561l-96 -21z" />
    <glyph glyph-name="L" unicode="L" horiz-adv-x="595" 
d="M-10 0h522l46 205l-13 6l-101 -111q-14 -16 -27 -27.5t-27 -19t-30.5 -11.5t-37.5 -5l-111 -2l90 563l99 22l3 17h-311l-3 -17l89 -21l-89 -561l-96 -21z" />
    <glyph glyph-name="M" unicode="M" horiz-adv-x="900" 
d="M1 0h202l2 17l-76 30l83 527h7l136 -574h27l309 575h6l-85 -537l-92 -21l-3 -17h304l3 17l-89 21l89 561l96 21l3 17h-239l-54 -103l-190 -359h-5l-77 359l-21 103h-235l-3 -17l78 -23l-87 -550l-87 -30z" />
    <glyph glyph-name="N" unicode="N" horiz-adv-x="732" 
d="M532 -6h39l94 594l88 32l2 17h-204l-2 -17l78 -32l-64 -401h-7l-207 347l-60 103h-184l-3 -17l74 -31l-86 -540l-87 -32l-2 -17h204l2 17l-78 32l75 471h7l259 -423z" />
    <glyph glyph-name="O" unicode="O" horiz-adv-x="697" 
d="M321 -15q74 0 137 31t108.5 83.5t71 121.5t25.5 145q0 63 -20 116t-56.5 90.5t-87 58.5t-111.5 21q-75 0 -137.5 -31t-108.5 -83.5t-71.5 -121t-25.5 -144.5q0 -64 20 -116.5t56.5 -90.5t87 -59t112.5 -21zM320 14q-35 0 -61.5 15.5t-44.5 44t-27 68.5t-9 88
q0 66 15 135.5t42.5 126.5t66.5 94t87 37q34 0 60.5 -15.5t44.5 -44t27 -68t9 -88.5q0 -66 -15 -135.5t-42.5 -126.5t-66 -94t-86.5 -37z" />
    <glyph glyph-name="P" unicode="P" horiz-adv-x="605" 
d="M-10 0h313l3 17l-94 21l37 238q22 -4 50.5 -7t53.5 -3q52 0 97.5 15t79 42t52.5 65t19 84q0 33 -12 62.5t-39.5 52.5t-71.5 36.5t-108 13.5h-278l-3 -17l89 -21l-89 -561l-96 -21zM309 304h-29q-18 0 -25 2l46 297q3 1 10.5 1.5t15.5 0.5h17h12q57 -1 86.5 -35.5
t29.5 -91.5q0 -37 -10 -69t-30.5 -55t-51 -36.5t-71.5 -13.5z" />
    <glyph glyph-name="Q" unicode="Q" horiz-adv-x="697" 
d="M452 -190h89l3 15q-30 7 -56 18t-49 30q-20 16 -37 47t-32 69q65 10 119 44t92.5 85t60 115t21.5 133q0 63 -20 116t-56.5 90.5t-87 58.5t-111.5 21q-75 0 -137.5 -31t-108.5 -83.5t-71.5 -121t-25.5 -144.5q0 -54 14.5 -99.5t40.5 -81.5t63.5 -61t83.5 -36l20 -58
q14 -42 25 -62t24 -31q21 -20 52 -26.5t84 -6.5zM320 14q-35 0 -61.5 15.5t-44.5 44t-27 68.5t-9 88q0 66 15 135.5t42.5 126.5t66.5 94t87 37q34 0 60.5 -15.5t44.5 -44t27 -68t9 -88.5q0 -66 -15 -135.5t-42.5 -126.5t-66 -94t-86.5 -37z" />
    <glyph glyph-name="R" unicode="R" horiz-adv-x="654" 
d="M-10 0h307l3 17l-88 21l40 254h25q20 0 34 -3t25 -11.5t19 -24t16 -40.5l32 -109q8 -26 16 -45.5t20.5 -32.5t31.5 -19.5t50 -6.5h113l3 17q-28 6 -43 15t-31 28q-14 16 -25.5 46.5t-25.5 76.5q-15 51 -40 80t-78 41l1 5q45 6 83.5 20t66.5 36.5t44 53t16 69.5
q0 31 -12 58t-39 47t-70 32t-106 12h-286l-3 -17l89 -21l-89 -561l-96 -21zM257 323l44 280q6 2 24 2h27q61 -1 91.5 -33.5t30.5 -82.5q0 -73 -40.5 -117.5t-118.5 -46.5z" />
    <glyph glyph-name="S" unicode="S" horiz-adv-x="529" 
d="M28 -14h18l45 40q26 -17 66.5 -29t92.5 -12q37 0 77 13.5t72.5 40t53.5 66t21 91.5q0 36 -11.5 61.5t-31.5 46t-46.5 36.5t-56.5 32q-28 15 -51 28.5t-39.5 29t-25.5 34.5t-9 45q0 23 8.5 43t22.5 34.5t33.5 23t41.5 8.5q24 0 43.5 -8.5t37 -28t34 -52.5t35.5 -82l20 3
l12 201h-18l-42 -34q-22 16 -53 25.5t-69 9.5q-39 0 -77 -14.5t-68 -41t-48 -64.5t-18 -84q0 -36 11.5 -62t31 -46.5t46.5 -37t57 -32.5q28 -15 51.5 -28.5t40 -29t25.5 -35t9 -46.5q0 -46 -30 -79t-87 -33q-28 0 -53 8.5t-47.5 30.5t-43 59.5t-40.5 95.5l-23 -2z" />
    <glyph glyph-name="T" unicode="T" horiz-adv-x="638" 
d="M116 0h319l3 17l-96 21l90 565h36q17 -1 30 -4.5t23.5 -12t21 -22t22.5 -34.5l59 -100l17 5l1 202h-535l-55 -202l15 -5l87 100q18 20 32 33.5t27 22t27 12.5t33 5h37l-90 -565l-101 -21z" />
    <glyph glyph-name="U" unicode="U" horiz-adv-x="713" 
d="M341 -16q51 0 94.5 16.5t76.5 45.5t54 67.5t29 83.5l62 393l81 30l3 17h-190l-3 -17l71 -30l-60 -372q-6 -36 -20 -68t-37 -56.5t-55.5 -38.5t-75.5 -14q-38 0 -67.5 10.5t-48 33.5t-25 59t1.5 88l58 367l98 21l2 17h-310l-3 -17l89 -21l-57 -359q-20 -125 37.5 -190.5
t194.5 -65.5z" />
    <glyph glyph-name="V" unicode="V" horiz-adv-x="641" 
d="M265 -6h34l328 592l75 34l3 17h-192l-3 -17l64 -31l-230 -440l-88 450l90 21l2 17h-299l-3 -17l79 -26z" />
    <glyph glyph-name="W" unicode="W" horiz-adv-x="917" 
d="M216 -6h33l246 460l86 -460h35l283 591l75 35l3 17h-191l-3 -17l63 -32l-185 -427l-68 438l83 21l3 17h-277l-3 -17l69 -26l17 -82l-181 -351l-50 438l83 21l3 17h-292l-2 -17l79 -26z" />
    <glyph glyph-name="X" unicode="X" horiz-adv-x="689" 
d="M-15 0h220l3 17l-70 26l180 226l10.5 -24t25 -57.5t30 -69t25 -57.5t10.5 -24l-82 -20l-2 -17h294l3 17l-76 23l-154 310l218 243l81 27l3 17h-220l-3 -17l70 -26l-167 -209l-92 215l82 20l2 17h-294l-3 -17l76 -23l146 -295l-232 -258l-81 -27z" />
    <glyph glyph-name="Y" unicode="Y" horiz-adv-x="635" 
d="M121 0h312l2 17l-91 25l40 250l228 297l80 30l3 18h-208l-3 -16l65 -29l-182 -266l-104 270l82 24l3 17h-298l-3 -17l77 -29l136 -307l-38 -242l-98 -25z" />
    <glyph glyph-name="Z" unicode="Z" horiz-adv-x="622" 
d="M-11 0h520l50 199l-12 6l-95 -106q-14 -16 -26.5 -27t-26 -18.5t-29 -11t-36.5 -3.5l-184 -2l471 590l-2 10h-490l-48 -183l12 -6l84 83q20 19 35.5 32t30.5 20.5t30.5 11t35.5 3.5l151 1l-473 -589z" />
    <glyph glyph-name="bracketleft" unicode="[" horiz-adv-x="307" 
d="M12 -176h265l6 32h-169l136 853h168l5 32h-265z" />
    <glyph glyph-name="backslash" unicode="\" horiz-adv-x="374" 
d="M373 -211l36 17l-205 466l-200 469l-36 -16l206 -467z" />
    <glyph glyph-name="bracketright" unicode="]" horiz-adv-x="307" 
d="M-115 -176h265l146 917h-265l-5 -32h168l-136 -853h-168z" />
    <glyph glyph-name="asciicircum" unicode="^" horiz-adv-x="313" 
d="M73 506l139 86l102 -86l15 12l-91 180h-18l-159 -180z" />
    <glyph glyph-name="underscore" unicode="_" horiz-adv-x="444" 
d="M-15 0h440v39h-440v-39z" />
    <glyph glyph-name="grave" unicode="`" horiz-adv-x="242" 
d="M221 515l13 8q-11 48 -20.5 94t-20.5 72q-8 19 -26 26t-35 -3q-18 -11 -22.5 -30.5t6.5 -38.5q14 -24 44 -58.5t61 -69.5z" />
    <glyph glyph-name="a" unicode="a" horiz-adv-x="494" 
d="M150 -11q39 0 69.5 21t59.5 58l5 -3q1 -34 15.5 -55t47.5 -21q30 0 66 13t69 34l-2 7q-34 1 -53.5 4t-28.5 9t-10.5 16t1.5 25l66 375l-7 4l-53 -29q-38 19 -77 19q-57 0 -110.5 -28.5t-95 -74t-66 -102.5t-24.5 -114q0 -37 10.5 -66.5t28 -49.5t40.5 -31t49 -11zM208 61
q-35 0 -56 29t-21 83q0 42 9 84.5t25 77.5t38 57t48 22q47 0 84 -53l-45 -262q-22 -18 -40 -28t-42 -10z" />
    <glyph glyph-name="b" unicode="b" horiz-adv-x="490" 
d="M177 -11q55 0 107.5 28.5t93.5 74t66 102t25 112.5q0 38 -10 68t-27.5 50.5t-40.5 31t-50 10.5q-42 0 -73.5 -18.5t-63.5 -48.5l-4 4l56 337l-4 3l-176 -50v-10l63 -41l-101 -605q21 -19 59 -33.5t80 -14.5zM236 41q-49 0 -88 53l48 276q19 12 37.5 18t41.5 6
q42 0 64 -29t22 -85q0 -41 -9 -83.5t-25.5 -77t-39.5 -56.5t-51 -22z" />
    <glyph glyph-name="c" unicode="c" horiz-adv-x="414" 
d="M204 -11q50 0 96.5 27.5t76.5 77.5l-8 9q-26 -21 -56.5 -34t-63.5 -13q-50 0 -82.5 31.5t-32.5 101.5q0 49 14.5 94t38.5 80t54.5 56t62.5 22q-11 -28 -11 -58q0 -32 17 -51t46 -19q24 0 39.5 18t15.5 45q0 17 -7.5 33t-22.5 29t-37.5 20.5t-52.5 7.5q-53 0 -100.5 -24
t-84 -65t-58 -94.5t-21.5 -111.5q0 -38 11.5 -71t34 -57.5t55.5 -39t76 -14.5z" />
    <glyph glyph-name="d" unicode="d" horiz-adv-x="501" 
d="M154 -11q42 0 72.5 21t60.5 58l5 -3q0 -34 15 -55t47 -21q31 0 67 13t69 34l-2 7q-32 1 -51.5 3.5t-29 8.5t-11.5 16t1 26l108 643l-4 3l-176 -50v-10l63 -41l-30 -180q-16 4 -36 4q-59 0 -113 -28.5t-95.5 -74t-66.5 -102t-25 -112.5q0 -38 10.5 -67.5t28.5 -50
t42 -31.5t51 -11zM215 61q-41 0 -62.5 29.5t-21.5 84.5q0 41 9 83.5t25.5 77t39 56.5t50.5 22q23 0 45.5 -13.5t41.5 -39.5l-45 -262q-22 -18 -40 -28t-42 -10z" />
    <glyph glyph-name="e" unicode="e" horiz-adv-x="424" 
d="M135 222q78 -1 131.5 12t85.5 34t46 48t14 53q0 40 -31.5 68.5t-88.5 28.5q-56 0 -105 -25.5t-85 -67t-57 -95.5t-21 -111q0 -36 11 -68.5t32.5 -56.5t53.5 -38.5t74 -14.5q57 0 107 30t77 78l-7 9q-28 -23 -61 -37t-61 -14q-65 0 -93.5 43t-21.5 124zM138 249
q6 35 18.5 68t30.5 59t40 42t46 16q20 0 30.5 -13.5t10.5 -34.5q0 -23 -9.5 -48t-30.5 -45.5t-54.5 -33t-81.5 -10.5z" />
    <glyph glyph-name="f" unicode="f" horiz-adv-x="306" 
d="M-35 -219q29 0 57.5 12.5t54.5 38.5q22 22 39 48t30 57.5t22.5 71.5t16.5 91l41 297h120l9 51h-122l4 28q8 56 17 93.5t18.5 62.5t21 40t25.5 27q18 -42 45 -61.5t53 -19.5q28 0 43.5 16.5t15.5 40.5q0 26 -25.5 46t-66.5 20q-40 0 -74.5 -15t-66.5 -44
q-41 -36 -67.5 -84t-38.5 -124l-3 -20l-112 -39l-3 -18h106l-57 -407q-9 -65 -19 -102.5t-23 -57.5q-16 32 -39.5 50t-52.5 18q-26 0 -41.5 -15.5t-15.5 -38.5q0 -26 24 -44.5t64 -18.5z" />
    <glyph glyph-name="g" unicode="g" horiz-adv-x="465" 
d="M170 -219q52 0 94 13t71 34.5t44.5 49.5t15.5 57q0 21 -7 39.5t-26 36t-53 34.5t-88 36q-30 11 -37 20t-2 32h14q44 0 82.5 16t66.5 42.5t44 61.5t16 73q0 46 -24 81l55 13q2 -19 14.5 -29.5t27.5 -10.5q21 0 34 15.5t13 38.5q0 21 -15 36t-41 15q-23 0 -48.5 -17.5
t-50.5 -47.5q-41 46 -120 46q-44 0 -82.5 -16t-67 -43t-44.5 -62t-16 -73q0 -49 27 -84.5t76 -48.5l-34 -107q-69 -11 -112 -43t-43 -81q0 -25 14 -48t41.5 -40.5t68 -28t92.5 -10.5zM211 162q-34 0 -50.5 29t-16.5 72q0 26 5.5 56.5t16.5 56t28.5 42.5t40.5 17
q34 0 50.5 -28.5t16.5 -72.5q0 -26 -5.5 -56.5t-17 -56t-28.5 -42.5t-40 -17zM209 -185q-34 0 -62 9t-48 24t-31 34.5t-11 40.5q0 27 12.5 49.5t41.5 39.5q102 -30 148.5 -60t46.5 -65t-25.5 -53.5t-71.5 -18.5z" />
    <glyph glyph-name="h" unicode="h" horiz-adv-x="514" 
d="M372 -11q29 0 64.5 13t68.5 34l-2 7q-32 1 -51.5 3.5t-29.5 8.5t-11.5 16t1.5 26l39 205q7 36 6 66t-10.5 51.5t-29 34t-49.5 12.5q-38 0 -77.5 -21.5t-89.5 -66.5l-4 2l59 360l-4 3l-176 -50v-10l63 -41l-107 -642h101l59 352q31 17 53.5 25.5t48.5 8.5q45 0 54 -29
t-1 -83l-32 -173q-3 -13 -5 -27.5t-2 -25.5q0 -26 14.5 -42.5t49.5 -16.5z" />
    <glyph glyph-name="i" unicode="i" horiz-adv-x="275" 
d="M189 543q16 0 29.5 8t23.5 21t15 29t5 32q0 28 -14.5 43t-36.5 15q-17 0 -30.5 -8t-23.5 -20.5t-15.5 -29t-5.5 -32.5q0 -27 15.5 -42.5t37.5 -15.5zM118 -11q30 0 66.5 13t70.5 34l-2 7q-34 1 -53.5 3.5t-29 8.5t-11 16.5t1.5 26.5l67 371l-4 3l-180 -50v-10l65 -41
l-52 -286q-9 -45 5 -70.5t56 -25.5z" />
    <glyph glyph-name="j" unicode="j" horiz-adv-x="269" 
d="M195 543q16 0 29.5 8t23.5 21t15 29t5 32q0 28 -14.5 43t-36.5 15q-17 0 -30.5 -8t-23.5 -20.5t-15.5 -29t-5.5 -32.5q0 -27 15.5 -42.5t37.5 -15.5zM-47 -219q36 0 66 14.5t59 43.5q23 24 39 49.5t27 56t19 68t15 85.5l53 371l-4 3l-175 -50v-10l64 -41l-55 -379
q-10 -68 -20 -105t-24 -57q-14 32 -38.5 50t-53.5 18q-26 0 -41 -15.5t-15 -38.5q1 -26 23.5 -44.5t60.5 -18.5z" />
    <glyph glyph-name="k" unicode="k" horiz-adv-x="466" 
d="M352 -11q30 0 63.5 13t63.5 34l-2 7q-28 0 -46 2.5t-28.5 7t-15.5 12t-7 18.5q-7 29 -17 61t-21 50q-14 24 -32.5 37t-53.5 18v4q55 16 90.5 34t55.5 37t28 38.5t8 39.5q0 25 -14 45.5t-44 20.5q-26 0 -44 -22t-18 -54q0 -31 20 -60q-19 -20 -60.5 -43t-102.5 -38l81 489
l-4 3l-176 -50v-10l64 -41l-108 -642h101l38 223q23 -3 38 -11t26 -25.5t20.5 -48t21.5 -78.5q9 -38 26.5 -54.5t48.5 -16.5z" />
    <glyph glyph-name="l" unicode="l" horiz-adv-x="269" 
d="M115 -11q29 0 65.5 13t69.5 34l-2 7q-33 1 -52.5 3.5t-29 8.5t-11 16.5t1.5 26.5l107 642l-4 3l-177 -50v-10l64 -41l-94 -557q-8 -45 5.5 -70.5t56.5 -25.5z" />
    <glyph glyph-name="m" unicode="m" horiz-adv-x="770" 
d="M628 -11q29 0 64.5 13t69.5 34l-3 7q-33 1 -52.5 4t-29 9t-11 16t1.5 25l39 205q14 76 -3 120t-69 44q-38 0 -80 -23.5t-93 -70.5l-4 3q-1 38 -19 64.5t-60 26.5q-37 0 -78.5 -23t-92.5 -70l-4 3l14 93l-4 3l-170 -50v-10l63 -41l-63 -371h102l59 352q31 17 52.5 25.5
t45.5 8.5q40 0 46.5 -26.5t-3.5 -85.5l-46 -274h101l59 352q31 17 53 25.5t45 8.5q41 0 49 -27t-3 -85l-32 -173q-3 -13 -5 -27.5t-2 -25.5q0 -26 14 -42.5t49 -16.5z" />
    <glyph glyph-name="n" unicode="n" horiz-adv-x="526" 
d="M384 -11q29 0 64.5 13t68.5 34l-2 7q-32 1 -51.5 3.5t-29.5 8.5t-11.5 16t1.5 26l39 205q7 36 6 66t-10.5 51.5t-29 34t-49.5 12.5q-38 0 -79.5 -23t-92.5 -70l-4 3l14 93l-4 3l-170 -50v-10l63 -41l-62 -371h101l59 352q31 17 53 25.5t48 8.5q46 0 55 -29t-1 -83
l-33 -173q-3 -13 -5 -27.5t-2 -25.5q0 -26 14.5 -42.5t49.5 -16.5z" />
    <glyph glyph-name="o" unicode="o" horiz-adv-x="483" 
d="M200 -11q56 0 103 25.5t81 67t53 94t19 106.5q0 91 -46 137.5t-125 46.5q-56 0 -103 -25.5t-81.5 -67t-54 -94t-19.5 -106.5q0 -90 47 -137t126 -47zM223 24q-42 0 -63 39.5t-21 107.5q0 39 7.5 84.5t22.5 84.5t38 65t54 26q41 0 62.5 -39.5t21.5 -106.5
q0 -39 -7.5 -84.5t-22.5 -85t-38 -65.5t-54 -26z" />
    <glyph glyph-name="p" unicode="p" horiz-adv-x="501" 
d="M-58 -208h249l2 13l-76 31l27 158q23 -5 44 -5q54 0 106.5 28.5t94 74t66.5 102t25 112.5q0 38 -10 68t-27.5 50.5t-41 31t-49.5 10.5q-41 0 -76 -21t-67 -61l-3 3l12 82l-4 3l-170 -50v-10l63 -41l-91 -535l-71 -31zM247 41q-23 0 -45.5 13.5t-41.5 39.5l46 266
q19 14 38.5 24t42.5 10q41 0 62.5 -29t21.5 -85q0 -41 -9 -83.5t-25.5 -77t-39 -56.5t-50.5 -22z" />
    <glyph glyph-name="q" unicode="q" horiz-adv-x="483" 
d="M169 -208h246l2 13l-63 31l108 636l-8 4l-53 -29q-39 19 -79 19q-59 0 -113 -28.5t-95.5 -74t-66.5 -102t-25 -112.5q0 -38 10.5 -67.5t28.5 -50t41.5 -31.5t49.5 -11q42 0 73.5 20t61.5 52l4 -3l-38 -222l-81 -31zM216 61q-42 0 -63.5 29.5t-21.5 84.5q0 41 9 83.5
t25 77t39 56.5t51 22q47 0 86 -53l-45 -268q-18 -14 -37.5 -23t-42.5 -9z" />
    <glyph glyph-name="r" unicode="r" horiz-adv-x="385" 
d="M45 0h101l54 326q35 43 75 56q14 -18 30 -28.5t38 -10.5q26 0 43.5 19.5t17.5 45.5t-17.5 42.5t-48.5 16.5q-18 0 -36.5 -9t-36 -25t-33 -36.5t-28.5 -44.5l-4 3l19 114l-4 3l-171 -50v-10l63 -41z" />
    <glyph glyph-name="s" unicode="s" horiz-adv-x="385" 
d="M154 -11q44 0 78.5 12.5t58.5 33.5t36.5 48.5t12.5 57.5q0 38 -21.5 66t-64.5 54l-50 31q-28 17 -43.5 36t-15.5 43t14 42.5t43 18.5q19 0 38 -10q4 -42 22.5 -68t46.5 -26q21 0 35 14.5t14 38.5q0 16 -8 31.5t-23 27.5t-38 19t-53 7q-39 0 -71.5 -12.5t-55 -33
t-35 -46.5t-12.5 -53q0 -41 22.5 -68.5t64.5 -53.5l43 -28q35 -23 48.5 -42.5t13.5 -40.5q0 -31 -18 -48t-50 -17q-43 0 -78 22q15 48 1 79t-46 31q-23 0 -39.5 -18t-16.5 -47q0 -21 10.5 -39.5t30 -32t46.5 -21.5t60 -8z" />
    <glyph glyph-name="t" unicode="t" horiz-adv-x="325" 
d="M150 -9q20 0 41 4.5t41.5 12t39.5 17t35 18.5v14q-32 -3 -55 -3q-32 0 -49.5 3.5t-26.5 11.5q-11 9 -12.5 25.5t3.5 45.5l44 257h126l9 51h-127l22 128l-18 5l-81 -93l-102 -76l-2 -15h72l-47 -280q-11 -63 7.5 -94.5t79.5 -31.5z" />
    <glyph glyph-name="u" unicode="u" horiz-adv-x="534" 
d="M152 -11q38 0 78.5 22.5t88.5 69.5l5 -3q-4 -41 10 -65t53 -24q30 0 64 13t67 34l-2 7q-33 1 -52.5 3.5t-29 8.5t-11 16t1.5 26l67 372l-4 3l-178 -50v-10l65 -41l-48 -265q-29 -17 -52.5 -26t-51.5 -9q-23 0 -36 7.5t-18.5 21.5t-5 34.5t5.5 46.5l54 288l-4 3l-177 -50
v-10l64 -41l-41 -218q-6 -34 -5.5 -63.5t10.5 -52t30 -35.5t52 -13z" />
    <glyph glyph-name="v" unicode="v" horiz-adv-x="473" 
d="M169 -22q67 63 121.5 121t93 110.5t59.5 97.5t21 81q0 35 -16 56.5t-43 21.5q-26 0 -43.5 -20t-17.5 -53q0 -21 9.5 -44t26.5 -45q-26 -85 -124 -199l-4 3q-2 53 -6 102.5t-9.5 90.5t-12.5 71.5t-14 46.5q-11 23 -25.5 35t-39.5 12q-32 0 -67 -26.5t-65 -63.5l5 -7
q46 15 63 15q15 0 23 -9.5t13 -27.5q11 -32 24 -112.5t21 -196.5l-17 -48z" />
    <glyph glyph-name="w" unicode="w" horiz-adv-x="691" 
d="M168 -22q64 60 115.5 120.5t88.5 116.5q7 -42 14 -86t15 -89l-17 -50l23 -12q64 61 115 118.5t86 109.5t54 97.5t18 82.5t-17 58.5t-43 21.5q-26 0 -43.5 -20t-16.5 -53q0 -21 10.5 -45.5t29.5 -44.5q-11 -44 -38 -93.5t-73 -105.5l-4 2q-13 94 -24 182t-22 181h-8
l-93 -40q5 -29 10.5 -67t13.5 -83q-19 -39 -46.5 -84.5t-61.5 -90.5l-4 3q-1 50 -5 99t-9.5 91t-12.5 74t-14 48q-10 23 -24.5 35t-39.5 12q-32 0 -66.5 -26.5t-64.5 -63.5l5 -7q46 15 64 15q15 0 22.5 -9t13.5 -28q11 -32 23 -111.5t20 -195.5l-18 -50z" />
    <glyph glyph-name="x" unicode="x" horiz-adv-x="486" 
d="M61 -13q40 0 77 43.5t77 141.5l4 -1q12 -48 24.5 -82.5t26 -56.5t30.5 -32.5t38 -10.5q30 0 59.5 16t59.5 42l-2 7q-27 -2 -43.5 -0.5t-27.5 6.5t-18.5 14.5t-15.5 24.5q-15 29 -30.5 68t-32.5 90q23 49 45.5 80.5t37.5 42.5q25 -34 63 -34q26 0 42 18t16 43q0 27 -19 44
t-48 17q-41 0 -76 -41t-73 -138l-4 1q-24 91 -50 133.5t-70 42.5q-29 0 -57.5 -16t-59.5 -41l3 -8q27 1 43.5 0t27.5 -6t18 -14.5t15 -24.5q15 -27 31 -66.5t33 -86.5q-25 -49 -49 -83t-41 -45q-12 16 -27.5 25t-35.5 9q-26 0 -42.5 -18t-16.5 -43q0 -27 19.5 -44t48.5 -17z
" />
    <glyph glyph-name="y" unicode="y" horiz-adv-x="480" 
d="M68 -219q30 0 57 15t56 44q42 41 83 109.5t80 150t75.5 167.5t69.5 163l-92 44h-8q-7 -40 -16.5 -86.5t-21 -95.5t-25 -98t-27.5 -94h-5q-8 51 -18 100t-21.5 91t-22.5 74.5t-21 50.5q-13 25 -28.5 37.5t-41.5 12.5q-31 0 -63.5 -26.5t-61.5 -62.5l6 -8q23 8 38 11.5
t24 3.5q14 0 23 -8t17 -28q11 -26 25 -68t28 -92.5t27.5 -106t24.5 -109.5q-26 -47 -60.5 -88t-67.5 -59q2 42 -15 71t-49 29q-26 0 -40 -18.5t-14 -43.5q0 -33 22.5 -57.5t62.5 -24.5z" />
    <glyph glyph-name="z" unicode="z" horiz-adv-x="429" 
d="M299 -11q14 0 26 6t24 22t25 45t29 75l-8 4q-17 -17 -29.5 -28t-24 -16.5t-23.5 -6t-27 2.5l-144 31l304 330l-16 15l-70 -37l-82 17q-26 8 -46.5 13.5t-45.5 5.5q-35 0 -60.5 -14t-48.5 -39q-17 -18 -29 -42t-12 -52q0 -27 17.5 -46t44.5 -19q22 0 34.5 14.5t12.5 36.5
q0 20 -15 38t-50 27l1 4q14 7 37 7q58 0 190 -33l-309 -338l15 -13l84 46l88 -30q39 -14 64.5 -20t43.5 -6z" />
    <glyph glyph-name="braceleft" unicode="{" horiz-adv-x="339" 
d="M283 -176l3 23q-31 7 -51 16.5t-30.5 25.5t-12 39.5t3.5 57.5l17 114q7 46 3.5 78t-17.5 53.5t-38 34t-57 19.5v2q35 6 63 17.5t49 32.5t35 53t21 78l18 114q5 34 14.5 57.5t25 39t38.5 24.5t56 15l5 23q-53 -3 -94.5 -11.5t-71.5 -27t-49 -50.5t-27 -83l-21 -131
q-6 -37 -15.5 -62t-27 -41.5t-43 -25t-62.5 -11.5l-3 -19q36 -5 58.5 -14.5t34.5 -26t14 -42t-4 -62.5l-20 -130q-8 -51 0.5 -83.5t32.5 -52t62.5 -29.5t89.5 -15z" />
    <glyph glyph-name="bar" unicode="|" horiz-adv-x="273" 
d="M115 -241h43l-3 471l3 471h-43l3 -471z" />
    <glyph glyph-name="braceright" unicode="}" horiz-adv-x="339" 
d="M-83 -176q53 3 94.5 11.5t71.5 27t49 50.5t27 83l21 134q6 37 16 62t27.5 41.5t43 25t62.5 11.5l3 19q-36 5 -58.5 14.5t-34.5 26t-14.5 42t3.5 62.5l20 127q8 51 -0.5 83.5t-32.5 52t-62.5 29.5t-89.5 15l-3 -23q31 -7 50.5 -17t30 -25.5t12.5 -39t-3 -57.5l-17 -111
q-7 -46 -3.5 -78t17.5 -53.5t38 -34t57 -19.5v-2q-35 -6 -63 -17.5t-49 -32.5t-35 -53t-21 -78l-18 -118q-6 -34 -15 -57.5t-24.5 -38.5t-39 -24t-56.5 -15z" />
    <glyph glyph-name="asciitilde" unicode="~" horiz-adv-x="365" 
d="M73 262q10 23 21.5 32t26.5 9t31 -5.5t33 -12t35.5 -12t37.5 -5.5q34 0 55.5 24.5t27.5 81.5l-16 5q-9 -23 -21.5 -32t-27.5 -9q-14 0 -30 5.5t-32.5 12t-34.5 12t-37 5.5q-34 0 -55 -25t-30 -81z" />
    <glyph glyph-name="quotesinglbase" unicode="&#x201a;" horiz-adv-x="229" 
d="M30 -134q72 33 101.5 75t29.5 84q0 40 -20 65t-55 25q-28 0 -47 -20t-19 -47q0 -23 15 -39t38 -16h8t8 2l19 5l2 -2q-7 -24 -26 -52t-64 -67z" />
    <glyph glyph-name="florin" unicode="&#x192;" horiz-adv-x="481" 
d="M14 -185q29 0 59 12t56 38q22 22 39 47t30.5 56t23.5 70t18 89l29 171h120l9 50h-120l3 20q9 56 19 94t20.5 62.5t22.5 39.5t26 26q14 -44 41 -64t53 -20q28 0 43 16.5t15 38.5q0 29 -27 48t-66 19q-35 0 -71.5 -14t-68.5 -43q-42 -37 -67.5 -84t-38.5 -121l-2 -12
l-111 -39l-3 -17h103l-48 -280q-11 -68 -21.5 -104t-24.5 -55q-15 36 -39.5 54t-51.5 18q-26 0 -42 -16.5t-16 -38.5q0 -26 23 -43.5t65 -17.5z" />
    <glyph glyph-name="quotedblbase" unicode="&#x201e;" horiz-adv-x="383" 
d="M196 -122q69 32 97 72t28 79q0 38 -19 62t-53 24q-26 0 -44 -19t-18 -45q0 -22 14 -37.5t36 -15.5q5 0 15 2l19 6l1 -2q-7 -23 -25 -50t-61 -64zM30 -122q69 32 96.5 72t27.5 79q0 38 -19 62t-52 24q-27 0 -45 -19t-18 -45q0 -22 14.5 -37.5t35.5 -15.5q5 0 8.5 0.5
t7.5 1.5l18 6l2 -2q-7 -23 -25 -50t-61 -64z" />
    <glyph glyph-name="ellipsis" unicode="&#x2026;" horiz-adv-x="643" 
d="M517 -16q27 0 46 19.5t19 46.5t-19 46t-46 19q-28 0 -47 -19t-19 -46t19 -46.5t47 -19.5zM302 -16q27 0 46 19.5t19 46.5t-19 46t-46 19t-46.5 -19t-19.5 -46t19.5 -46.5t46.5 -19.5zM88 -16q27 0 46 19.5t19 46.5t-19 46t-46 19q-28 0 -47 -19t-19 -46t19 -46.5
t47 -19.5z" />
    <glyph glyph-name="dagger" unicode="&#x2020;" horiz-adv-x="440" 
d="M136 -83h44l73 485l183 -4l6 40l-183 -4l41 236h-44l-33 -236l-183 4l-6 -40l183 4z" />
    <glyph glyph-name="daggerdbl" unicode="&#x2021;" horiz-adv-x="440" 
d="M136 -83h44l34 236l182 -4l6 40l-183 -4l35 217l181 -4l7 40l-184 -4l42 236h-44l-33 -236l-183 4l-6 -40l184 4l-35 -217l-182 4l-6 -40l183 4z" />
    <glyph glyph-name="circumflex" unicode="&#x2c6;" horiz-adv-x="313" 
d="M71 514l139 87l102 -87l14 11l-91 181h-17l-160 -179z" />
    <glyph glyph-name="perthousand" unicode="&#x2030;" horiz-adv-x="738" 
d="M376 -15q69 0 130 26t106 71.5t71.5 106.5t26.5 130t-26.5 129.5t-71.5 106t-106 71.5t-130 26t-130 -26t-106 -71.5t-71.5 -106t-26.5 -129.5t26.5 -130t71.5 -106.5t106 -71.5t130 -26zM376 15q-62 0 -117 24t-96 65.5t-64.5 96.5t-23.5 118t23.5 118t64.5 96t96 65
t117 24t117 -24t95.5 -65t64 -96t23.5 -118t-23.5 -118t-64 -96.5t-95.5 -65.5t-117 -24zM216 150h171v16l-46 13v120h8q26 0 39.5 -6.5t22.5 -29.5l21 -53q7 -17 13 -28.5t14 -18.5t18.5 -10t25.5 -3h65v16q-9 2 -16.5 6t-15.5 12q-9 11 -16.5 25.5t-15.5 40.5
q-8 24 -25.5 41t-53.5 22v2q53 9 76.5 34t23.5 56t-27 56.5t-84 25.5h-198v-15l46 -13v-280l-46 -13v-16zM341 320v145h6h10q6 0 11 -0.5t7 -0.5q29 -1 49 -18.5t20 -52.5q0 -33 -19 -52t-50 -20z" />
    <glyph glyph-name="guilsinglleft" unicode="&#x2039;" horiz-adv-x="300" 
d="M183 30l24 18l-85 178l141 171l-20 22l-221 -189l-2 -10z" />
    <glyph glyph-name="OE" unicode="&#x152;" horiz-adv-x="963" 
d="M357 0h506l50 200l-13 6l-105 -109q-28 -29 -53 -43.5t-68 -15.5l-132 -3l43 267h32q47 0 69.5 -20.5t29.5 -70.5l5 -31h17l44 279h-18l-13 -28q-25 -51 -53.5 -72.5t-77.5 -21.5h-30l43 266l92 -2q24 -1 40 -4.5t28 -11.5t22 -20t22 -30l68 -97l15 6l4 193h-466
q-101 0 -178.5 -29t-130 -79t-79.5 -117t-27 -143q0 -64 22.5 -114t64 -84.5t99 -52.5t128.5 -18zM365 35q-50 1 -86 17.5t-59 45t-34 67.5t-11 85q0 63 15 124.5t48 111t84.5 80.5t124.5 34l63 2l-90 -568z" />
    <glyph glyph-name="quoteleft" unicode="&#x2018;" horiz-adv-x="213" 
d="M144 411q28 0 47 19.5t19 46.5q0 24 -15 40t-38 16q-5 0 -8.5 -0.5t-8.5 -1.5l-18 -5l-2 1q7 24 26 52t64 67l-11 13q-71 -33 -100.5 -75.5t-29.5 -82.5t20 -65t55 -25z" />
    <glyph glyph-name="quoteright" unicode="&#x2019;" horiz-adv-x="213" 
d="M91 404q72 33 101.5 74.5t29.5 83.5q0 40 -20 65t-55 25q-28 0 -47 -20t-19 -47q0 -23 15 -39t38 -16h8t8 2l19 5l2 -2q-7 -23 -26 -51t-64 -67z" />
    <glyph glyph-name="quotedblleft" unicode="&#x201c;" horiz-adv-x="372" 
d="M307 422q26 0 44 19t18 45q0 23 -14 38t-36 15q-5 0 -15 -2l-18 -5l-2 1q3 12 9 24t15.5 26t24.5 29.5t37 34.5l-10 12q-69 -32 -97 -72t-28 -79q0 -38 19.5 -62t52.5 -24zM141 422q26 0 44 19t18 45q0 23 -14 38t-36 15q-6 0 -16 -2l-18 -5l-1 1q6 23 24 49.5t61 64.5
l-9 12q-69 -32 -97 -72t-28 -79q0 -38 19.5 -62t52.5 -24z" />
    <glyph glyph-name="quotedblright" unicode="&#x201d;" horiz-adv-x="373" 
d="M258 415q68 32 96 72t28 79q0 38 -19 62t-52 24q-27 0 -45 -19t-18 -45q0 -22 14 -37.5t36 -15.5q6 0 16 2l18 6l1 -2q-6 -23 -24 -49.5t-61 -63.5zM91 415q69 32 97 72t28 79q0 38 -19.5 62t-51.5 24q-27 0 -45 -19t-18 -45q0 -22 14 -37.5t36 -15.5q6 0 16 2l18 6l1 -2
q-6 -23 -24 -49.5t-61 -63.5z" />
    <glyph glyph-name="bullet" unicode="&#x2022;" horiz-adv-x="474" 
d="M244 170q31 0 58 11.5t47 32t31.5 47.5t11.5 58t-11.5 58t-31.5 47t-47 31.5t-58 11.5t-58 -11.5t-47.5 -31.5t-32 -47t-11.5 -58t11.5 -58t32 -47.5t47.5 -32t58 -11.5z" />
    <glyph glyph-name="endash" unicode="&#x2013;" horiz-adv-x="539" 
d="M39 230h441l7 39h-442z" />
    <glyph glyph-name="emdash" unicode="&#x2014;" horiz-adv-x="789" 
d="M39 230h691l7 39h-692z" />
    <glyph glyph-name="tilde" unicode="&#x2dc;" horiz-adv-x="345" 
d="M88 529q11 25 24 35t30 10q16 0 32.5 -6t34 -13t36 -13t39.5 -6q36 0 58.5 27.5t33.5 89.5l-19 6q-11 -25 -24 -35t-30 -10q-16 0 -32.5 6t-34 13t-36 13t-39.5 6q-36 0 -58 -27.5t-33 -89.5z" />
    <glyph glyph-name="trademark" unicode="&#x2122;" horiz-adv-x="532" 
d="M285 454h67v10l-25 12v137h4l64 -159h18l60 159h4v-140l-22 -9v-10h94v10l-26 9v144l26 9v11h-87l-10 -31l-33 -89h-2l-34 89l-11 31h-87v-11l24 -9v-141l-24 -12v-10zM117 454h98v10l-25 9v150h8q10 -1 16 -5t14 -15l24 -34l8 1l-7 67h-173l-9 -67l8 -1l25 34
q8 11 14.5 15t15.5 5h9v-150l-26 -9v-10z" />
    <glyph glyph-name="guilsinglright" unicode="&#x203a;" horiz-adv-x="300" 
d="M39 30l221 189l2 10l-162 190l-24 -18l84 -178l-140 -171z" />
    <glyph glyph-name="oe" unicode="&#x153;" horiz-adv-x="735" 
d="M422 377q-17 42 -52 65.5t-86 23.5q-56 0 -103 -25.5t-81 -67t-53.5 -94t-19.5 -106.5q0 -90 46.5 -137t124.5 -47q54 0 96 22.5t73 59.5q19 -37 54.5 -59.5t87.5 -22.5q27 0 53.5 8t50.5 22.5t44 34t34 43.5l-7 9q-28 -23 -61 -37t-61 -14q-65 0 -93.5 43t-21.5 124
q78 -1 131.5 12t85.5 34t46 48t14 53q0 40 -32 68.5t-87 28.5q-56 0 -102 -24t-81 -65zM450 249q6 35 18.5 68t30.5 59t40 42t46 16q20 0 30.5 -13.5t10.5 -34.5q0 -23 -9.5 -48t-30.5 -45.5t-54.5 -33t-81.5 -10.5zM223 24q-42 0 -63 39.5t-21 107.5q0 39 7.5 84.5
t22.5 84.5t38 65t54 26q41 0 62.5 -39.5t21.5 -106.5q0 -39 -7.5 -84.5t-22.5 -85t-38 -65.5t-54 -26z" />
    <glyph glyph-name="Ydieresis" unicode="&#x178;" horiz-adv-x="635" 
d="M508 723q28 0 46.5 20t18.5 46t-16.5 43.5t-42.5 17.5q-28 0 -46.5 -20.5t-18.5 -46.5t16.5 -43t42.5 -17zM334 723q27 0 45.5 20t18.5 46t-16 43.5t-42 17.5q-29 0 -47.5 -20.5t-18.5 -46.5t17 -43t43 -17zM121 0h312l2 17l-91 25l40 250l228 297l80 30l3 18h-208
l-3 -16l65 -29l-182 -266l-104 270l82 24l3 17h-298l-3 -17l77 -29l136 -307l-38 -242l-98 -25z" />
    <glyph glyph-name="exclamdown" unicode="&#xa1;" horiz-adv-x="264" 
d="M148 286q27 0 46 19t19 46t-19 46t-46 19t-46 -19t-19 -46t19 -46t46 -19zM66 -252q53 0 64 67q3 22 5 65t2.5 98t1 116.5t2.5 120.5l-27 5q-18 -60 -37.5 -122.5t-36.5 -118t-28 -99.5t-11 -66q0 -35 18 -50.5t47 -15.5z" />
    <glyph glyph-name="cent" unicode="&#xa2;" horiz-adv-x="440" 
d="M191 -91l13 80q26 1 51.5 9.5t48 22.5t41 32t30.5 37l-9 11q-27 -24 -60.5 -36t-62.5 -12q-16 0 -29 3l26 165l37 217q16 3 36 0q-9 -24 -10.5 -47t5 -41t20.5 -29t36 -11q25 0 40 17.5t15 43.5q0 18 -8 35t-24 30.5t-40 21.5t-56 8h-9l12 70l-34 4l-13 -78
q-46 -10 -86.5 -38t-71 -67.5t-48.5 -88.5t-18 -101q0 -35 10 -65.5t29 -53.5t46.5 -38t62.5 -19l-14 -79zM183 67q-25 14 -40 43.5t-15 77.5q0 37 8 74t23 69t36 57.5t47 38.5l-31 -202z" />
    <glyph glyph-name="sterling" unicode="&#xa3;" horiz-adv-x="538" 
d="M41 -15q29 0 55.5 22.5t44.5 57.5q49 -33 97 -56.5t97 -23.5q35 0 61.5 14.5t45 41t30 64t17.5 83.5l-21 1q-9 -23 -17.5 -41t-19.5 -30t-26 -18.5t-36 -6.5q-20 0 -45.5 2t-53 4.5t-55 3.5t-52.5 -2v7q62 30 95.5 74t33.5 97v10h136l6 44h-146q-4 25 -8 49t-4 56
q0 60 18.5 98t60.5 56q18 -42 46.5 -65.5t57.5 -23.5q31 0 45.5 17t14.5 39q0 31 -25 50t-75 19q-55 0 -102 -18.5t-81.5 -50t-54.5 -72t-20 -84.5q0 -20 2.5 -36.5t5.5 -33.5h-107l-7 -44h123q6 -26 6 -53q0 -66 -57 -126q-70 -3 -105 -25t-35 -53q0 -18 13 -32.5t41 -14.5
z" />
    <glyph glyph-name="currency" unicode="&#xa4;" horiz-adv-x="559" 
d="M306 -15q67 0 119.5 34.5t87.5 94.5l-11 13q-38 -33 -77.5 -48t-80.5 -15q-60 0 -100 40.5t-48 115.5h227l6 39h-234q0 20 2 41t6 44h238l6 39h-235q12 45 32 83t46.5 66.5t59.5 45.5t72 18q-21 -62 -4 -101t62 -39q27 0 44.5 19.5t17.5 49.5q0 17 -7 35t-22.5 33
t-40.5 24.5t-62 9.5q-48 0 -94.5 -18.5t-86.5 -51t-72 -77.5t-51 -97h-69l-7 -39h64q-5 -21 -8.5 -42t-4.5 -43h-63l-6 -39h70q3 -51 19 -94t44.5 -74.5t69 -49t91.5 -17.5z" />
    <glyph glyph-name="yen" unicode="&#xa5;" horiz-adv-x="623" 
d="M106 0h317l3 17l-98 25l20 127h173l6 40h-173l11 66h173l6 40h-159l196 246l87 34l2 17h-215l-2 -16l72 -29l-179 -244l-88 248l90 24l3 17h-296l-2 -17l78 -29l108 -251h-154l-6 -40h172l-11 -66h-172l-6 -40h172l-20 -127l-105 -25z" />
    <glyph glyph-name="section" unicode="&#xa7;" horiz-adv-x="461" 
d="M186 -98q52 0 94 21.5t71.5 57.5t45 83.5t15.5 100.5q0 57 -18.5 106t-53 91.5t-84 81t-110.5 75.5q9 30 23.5 51.5t32.5 35.5t37 21t36 7q20 0 34.5 -4.5t26.5 -13.5q0 -55 22 -80t51 -25q25 0 40 16.5t15 41.5q0 19 -9.5 37.5t-27.5 33t-45.5 23t-63.5 8.5
q-60 0 -106.5 -24.5t-79 -64.5t-49.5 -91.5t-17 -106.5q0 -59 19 -106.5t54 -89t83.5 -78t108.5 -72.5q-14 -51 -46 -77t-72 -26q-38 0 -63 12.5t-39 30.5q11 23 12.5 45.5t-4.5 40.5t-20 29.5t-35 11.5q-29 0 -45.5 -20t-16.5 -50q0 -25 13 -49t37 -42.5t58 -30t76 -11.5z
M336 65q-46 51 -83 98.5t-63 94t-40 93t-14 95.5q0 12 1 23.5t3 22.5q44 -50 81 -96.5t63.5 -92t41.5 -92t15 -95.5q0 -14 -1.5 -26.5t-3.5 -24.5z" />
    <glyph glyph-name="dieresis" unicode="&#xa8;" horiz-adv-x="346" 
d="M304 537q28 0 46.5 20t18.5 46t-16.5 43.5t-42.5 17.5q-28 0 -46.5 -20.5t-18.5 -46.5t16.5 -43t42.5 -17zM130 537q27 0 45.5 20t18.5 46t-16 43.5t-42 17.5q-29 0 -47.5 -20.5t-18.5 -46.5t17 -43t43 -17z" />
    <glyph glyph-name="copyright" unicode="&#xa9;" horiz-adv-x="738" 
d="M376 -15q69 0 130 26t106 71.5t71.5 106.5t26.5 130t-26.5 129.5t-71.5 106t-106 71.5t-130 26t-130 -26t-106 -71.5t-71.5 -106t-26.5 -129.5t26.5 -130t71.5 -106.5t106 -71.5t130 -26zM376 15q-62 0 -117 24t-96 65.5t-64.5 96.5t-23.5 118t23.5 118t64.5 96t96 65
t117 24t117 -24t95.5 -65t64 -96t23.5 -118t-23.5 -118t-64 -96.5t-95.5 -65.5t-117 -24zM384 142q36 0 61.5 5.5t51.5 16.5l11 90l-11 2l-63 -83q-9 -3 -16.5 -4t-18.5 -1q-51 0 -80.5 40.5t-29.5 115.5q0 41 7.5 69.5t20 46t29 25t33.5 7.5q32 0 59.5 -27.5t47.5 -76.5
l16 1l-7 128h-13l-16 -18q-15 8 -36.5 12t-41.5 4q-41 0 -75 -14.5t-58.5 -39t-38.5 -57t-14 -69.5q0 -81 50 -127t132 -46z" />
    <glyph glyph-name="ordfeminine" unicode="&#xaa;" horiz-adv-x="395" 
d="M147 317q29 0 51 14.5t43 41.5l5 -2q-1 -24 11.5 -39t36.5 -15q23 0 49.5 9.5t51.5 24.5l-2 6q-24 0 -38 2t-20.5 6.5t-7.5 12t1 18.5l48 260l-5 2l-43 -21q-14 7 -28.5 11t-30.5 4q-43 0 -82.5 -20t-69.5 -52t-48 -72t-18 -79q0 -27 8 -47.5t21 -35t30.5 -22t36.5 -7.5z
M194 371q-58 0 -58 78q0 29 6.5 58t18 52.5t27 38.5t33.5 15q34 0 59 -37l-31 -177q-15 -14 -27 -21t-28 -7z" />
    <glyph glyph-name="guillemotleft" unicode="&#xab;" horiz-adv-x="481" 
d="M364 30l23 18l-84 178l141 171l-20 22l-221 -189l-2 -10zM183 30l24 18l-85 178l141 171l-20 22l-221 -189l-2 -10z" />
    <glyph glyph-name="logicalnot" unicode="&#xac;" horiz-adv-x="505" 
d="M463 280l8 53h-418l-8 -53h418z" />
    <glyph glyph-name="registered" unicode="&#xae;" horiz-adv-x="376" 
d="M224 351q32 0 59.5 11.5t48 31.5t32 48t11.5 60t-11.5 59.5t-32 48t-48 32t-59.5 11.5t-60 -11.5t-48 -32t-31.5 -48t-11.5 -59.5t11.5 -60t31.5 -48t48 -31.5t60 -11.5zM224 367q-28 0 -52 10.5t-42 28.5t-28 42.5t-10 53.5t10 53.5t28 42.5t42 28.5t52 10.5t52 -10.5
t42 -28.5t28 -42.5t10 -53.5t-10 -53.5t-28 -42.5t-42 -28.5t-52 -10.5zM292 544q0 15 -13.5 26.5t-41.5 11.5h-92v-11l27 -7v-119l-27 -7v-10h88v10l-24 7v49h5q11 0 16.5 -3t9.5 -12l9 -23q5 -15 12 -21.5t21 -6.5h34v10q-12 1 -20 9q-7 6 -14 26q-7 23 -32 27v5
q42 7 42 39zM254 538q0 -14 -8 -22.5t-25 -8.5h-12v62l14 -1q31 0 31 -30z" />
    <glyph glyph-name="macron" unicode="&#xaf;" horiz-adv-x="324" 
d="M80 547h258l9 55h-258z" />
    <glyph glyph-name="macron" unicode="&#x2c9;" horiz-adv-x="324" 
d="M80 547h258l9 55h-258z" />
    <glyph glyph-name="degree" unicode="&#xb0;" horiz-adv-x="392" 
d="M202 352q40 0 72 16.5t54.5 43t34.5 59.5t12 67q0 55 -32 84.5t-89 29.5q-40 0 -72 -16.5t-54.5 -42.5t-34.5 -59.5t-12 -66.5q0 -56 32.5 -85.5t88.5 -29.5zM215 376q-30 0 -40.5 24t-10.5 61q0 27 4.5 56t13.5 54t23.5 41t35.5 16q30 0 40.5 -24t10.5 -61
q0 -27 -4.5 -56t-14 -54t-24 -41t-34.5 -16z" />
    <glyph glyph-name="plusminus" unicode="&#xb1;" 
d="M25 -200h450v1000h-450v-1000z" />
    <glyph glyph-name="acute" unicode="&#xb4;" horiz-adv-x="242" 
d="M96 514q42 35 83 67.5t63 57.5q17 20 18 41t-14 32q-16 11 -37 4t-36 -27q-20 -26 -42.5 -72t-46.5 -94z" />
    <glyph glyph-name="mu" unicode="&#xb5;" horiz-adv-x="505" 
d="M291 301l161 130l-30 38l-158 -129l-107 148l-42 -32l110 -148l-162 -130l30 -38l159 129l106 -148l43 32z" />
    <glyph glyph-name="mu" unicode="&#x3bc;" horiz-adv-x="505" 
d="M291 301l161 130l-30 38l-158 -129l-107 148l-42 -32l110 -148l-162 -130l30 -38l159 129l106 -148l43 32z" />
    <glyph glyph-name="paragraph" unicode="&#xb6;" horiz-adv-x="711" 
d="M438 -83h207l2 17l-108 18l110 690l111 19l2 16h-221q-105 0 -194.5 -32t-154.5 -89t-102 -134.5t-37 -167.5q0 -68 24.5 -129.5t73 -107.5t120.5 -73t167 -27zM409 -50l111 694l89 -2l-110 -690z" />
    <glyph glyph-name="periodcentered" unicode="&#xb7;" horiz-adv-x="225" 
d="M120 252q27 0 46 19t19 47q0 27 -19 46t-46 19q-28 0 -47 -19t-19 -46q0 -28 19 -47t47 -19z" />
    <glyph glyph-name="cedilla" unicode="&#xb8;" horiz-adv-x="286" 
d="M16 -257q50 0 81.5 28t31.5 70q0 36 -21.5 59.5t-59.5 31.5l113 96l-16 20l-181 -156l14 -14q12 4 30 4q26 0 41 -16t15 -43q0 -28 -13.5 -43t-35.5 -15q-8 0 -14 1.5t-11 3.5q12 12 12 28q0 14 -8 24.5t-24 10.5q-15 0 -24 -10.5t-9 -26.5q0 -21 21 -37t58 -16z" />
    <glyph glyph-name="ordmasculine" unicode="&#xba;" horiz-adv-x="390" 
d="M195 316q40 0 74 16.5t59 44.5t39 65t14 78q0 62 -35 96.5t-95 34.5q-39 0 -73.5 -16.5t-59.5 -44t-39.5 -64.5t-14.5 -78q0 -62 35.5 -97t95.5 -35zM207 343q-32 0 -43.5 27t-11.5 69q0 29 5.5 62t16.5 60.5t27 45.5t38 18q31 0 42.5 -27t11.5 -69q0 -29 -5.5 -62
t-16 -60.5t-27 -45.5t-37.5 -18z" />
    <glyph glyph-name="guillemotright" unicode="&#xbb;" horiz-adv-x="481" 
d="M220 30l221 189l2 10l-162 190l-24 -18l84 -178l-140 -171zM39 30l221 189l2 10l-162 190l-24 -18l84 -178l-140 -171z" />
    <glyph glyph-name="questiondown" unicode="&#xbf;" horiz-adv-x="369" 
d="M236 416q-27 0 -46 -19t-19 -46t19 -46t46 -19q28 0 47 19t19 46t-19 46t-47 19zM178 227q-20 0 -38.5 -4t-32.5 -11l2 -11q42 2 69.5 -10.5t27.5 -42.5q0 -29 -25.5 -44t-74.5 -35q-27 -11 -52.5 -23t-45 -30t-31 -43t-11.5 -61t14.5 -65.5t40 -51.5t61 -34t76.5 -12
q70 0 111 27t41 69q0 31 -19 47.5t-43 16.5q-28 0 -45 -20.5t-17 -49.5q0 -24 10 -44q-22 -14 -48 -14q-45 1 -70.5 26t-25.5 67q0 40 32 64.5t86 50.5q27 13 50.5 26t41 29t27 35.5t9.5 45.5q0 25 -10 44t-26.5 32t-38 19.5t-45.5 6.5z" />
    <glyph glyph-name="Agrave" unicode="&#xc0;" horiz-adv-x="632" 
d="M414 701l13 8q-11 48 -20.5 94t-20.5 72q-8 19 -26 26t-35 -3q-18 -11 -22.5 -30.5t6.5 -38.5q14 -24 44 -58.5t61 -69.5zM-47 0h205l3 17l-72 28l88 178h192l36 -185l-92 -21l-2 -17h297l3 17l-77 26l-132 600h-52l-320 -596l-74 -30zM195 259l119 242h1l47 -242h-167z
" />
    <glyph glyph-name="Aacute" unicode="&#xc1;" horiz-adv-x="632" 
d="M372 700q42 35 83 67.5t63 57.5q17 20 18 41t-14 32q-16 11 -37 4t-36 -27q-20 -26 -42.5 -72t-46.5 -94zM-47 0h205l3 17l-72 28l88 178h192l36 -185l-92 -21l-2 -17h297l3 17l-77 26l-132 600h-52l-320 -596l-74 -30zM195 259l119 242h1l47 -242h-167z" />
    <glyph glyph-name="Acircumflex" unicode="&#xc2;" horiz-adv-x="632" 
d="M261 690l139 87l102 -87l14 11l-91 181h-17l-160 -179zM-47 0h205l3 17l-72 28l88 178h192l36 -185l-92 -21l-2 -17h297l3 17l-77 26l-132 600h-52l-320 -596l-74 -30zM195 259l119 242h1l47 -242h-167z" />
    <glyph glyph-name="Atilde" unicode="&#xc3;" horiz-adv-x="632" 
d="M261 715q11 25 24 35t30 10q16 0 32.5 -6t34 -13t36 -13t39.5 -6q36 0 58.5 27.5t33.5 89.5l-19 6q-11 -25 -24 -35t-30 -10q-16 0 -32.5 6t-34 13t-36 13t-39.5 6q-36 0 -58 -27.5t-33 -89.5zM-47 0h205l3 17l-72 28l88 178h192l36 -185l-92 -21l-2 -17h297l3 17l-77 26
l-132 600h-52l-320 -596l-74 -30zM195 259l119 242h1l47 -242h-167z" />
    <glyph glyph-name="Adieresis" unicode="&#xc4;" horiz-adv-x="632" 
d="M482 723q28 0 46.5 20t18.5 46t-16.5 43.5t-42.5 17.5q-28 0 -46.5 -20.5t-18.5 -46.5t16.5 -43t42.5 -17zM308 723q27 0 45.5 20t18.5 46t-16 43.5t-42 17.5q-29 0 -47.5 -20.5t-18.5 -46.5t17 -43t43 -17zM-47 0h205l3 17l-72 28l88 178h192l36 -185l-92 -21l-2 -17
h297l3 17l-77 26l-132 600h-52l-320 -596l-74 -30zM195 259l119 242h1l47 -242h-167z" />
    <glyph glyph-name="Aring" unicode="&#xc5;" horiz-adv-x="632" 
d="M-47 0h205l3 17l-72 28l88 178h192l36 -185l-92 -21l-2 -17h297l3 17l-77 26l-130 589q37 11 57 40t20 62q0 34 -22.5 57t-62.5 23q-25 0 -45 -9t-33.5 -24t-21 -34t-7.5 -38q0 -27 15 -47.5t41 -28.5l-315 -586l-74 -30zM377 649q-14 0 -23 13t-9 40q0 14 2.5 30t8 30
t15 23t23.5 9t22.5 -12.5t8.5 -41.5q0 -14 -2.5 -30t-8 -29.5t-15 -22.5t-22.5 -9zM195 259l119 242h1l47 -242h-167z" />
    <glyph glyph-name="AE" unicode="&#xc6;" horiz-adv-x="922" 
d="M-61 0h205l3 17l-70 27l155 207h181l-33 -213l-97 -21l-2 -17h541l50 200l-13 6l-105 -109q-28 -29 -53 -43.5t-68 -15.5l-132 -3l43 267h32q47 0 69.5 -20.5t29.5 -70.5l5 -31h17l44 279h-17l-14 -28q-13 -26 -26 -43.5t-28 -29t-34 -16.5t-43 -5h-30l43 266l92 -2
q24 -1 40 -4.5t28 -11.5t22 -20t22 -30l68 -97l15 6l4 193h-515l-2 -17l87 -26l-436 -547l-75 -30zM258 285l202 270h2l-43 -270h-161z" />
    <glyph glyph-name="Ccedilla" unicode="&#xc7;" horiz-adv-x="644" 
d="M266 -257q50 0 81.5 28t31.5 70q0 36 -21.5 59.5t-59.5 31.5l63 53q105 2 187 41l31 168l-12 4l-130 -166q-30 -10 -68 -10q-36 0 -70.5 14t-61.5 43t-43 73.5t-16 104.5q0 70 16.5 136t45.5 117t70 81.5t91 30.5q31 0 57 -9.5t48 -32t41.5 -59.5t38.5 -91l20 2l28 223
h-15l-50 -39q-29 15 -71 25.5t-96 10.5q-77 0 -143 -30.5t-114 -82t-75 -119.5t-27 -143q0 -68 22 -120.5t60.5 -88.5t89.5 -56.5t109 -24.5l-110 -95l14 -14q12 4 30 4q26 0 41 -16t15 -43q0 -28 -13.5 -43t-35.5 -15q-8 0 -14 1.5t-11 3.5q12 12 12 28q0 14 -8 24.5
t-24 10.5q-14 0 -23.5 -10.5t-9.5 -26.5q0 -21 21 -37t58 -16z" />
    <glyph glyph-name="Egrave" unicode="&#xc8;" horiz-adv-x="631" 
d="M406 701l13 8q-11 48 -20.5 94t-20.5 72q-8 19 -26 26t-35 -3q-18 -11 -22.5 -30.5t6.5 -38.5q14 -24 44 -58.5t61 -69.5zM-10 0h541l51 200l-14 6l-104 -109q-14 -15 -27 -25.5t-26.5 -18t-30 -11.5t-37.5 -4l-132 -3l43 267h31q48 0 70 -20.5t30 -70.5l5 -31h16l45 279
h-18l-13 -28q-25 -51 -54 -72.5t-77 -21.5h-30l42 266l93 -2q24 -1 40 -4.5t28 -11.5t22 -20t22 -30l67 -97l16 6l4 193h-501l-3 -17l89 -21l-89 -561l-96 -21z" />
    <glyph glyph-name="Eacute" unicode="&#xc9;" horiz-adv-x="631" 
d="M351 700q42 35 83 67.5t63 57.5q17 20 18 41t-14 32q-16 11 -37 4t-36 -27q-20 -26 -42.5 -72t-46.5 -94zM-10 0h541l51 200l-14 6l-104 -109q-14 -15 -27 -25.5t-26.5 -18t-30 -11.5t-37.5 -4l-132 -3l43 267h31q48 0 70 -20.5t30 -70.5l5 -31h16l45 279h-18l-13 -28
q-25 -51 -54 -72.5t-77 -21.5h-30l42 266l93 -2q24 -1 40 -4.5t28 -11.5t22 -20t22 -30l67 -97l16 6l4 193h-501l-3 -17l89 -21l-89 -561l-96 -21z" />
    <glyph glyph-name="Ecircumflex" unicode="&#xca;" horiz-adv-x="631" 
d="M267 700l139 87l102 -87l14 11l-91 181h-17l-160 -179zM-10 0h541l51 200l-14 6l-104 -109q-14 -15 -27 -25.5t-26.5 -18t-30 -11.5t-37.5 -4l-132 -3l43 267h31q48 0 70 -20.5t30 -70.5l5 -31h16l45 279h-18l-13 -28q-25 -51 -54 -72.5t-77 -21.5h-30l42 266l93 -2
q24 -1 40 -4.5t28 -11.5t22 -20t22 -30l67 -97l16 6l4 193h-501l-3 -17l89 -21l-89 -561l-96 -21z" />
    <glyph glyph-name="Edieresis" unicode="&#xcb;" horiz-adv-x="631" 
d="M479 723q28 0 46.5 20t18.5 46t-16.5 43.5t-42.5 17.5q-28 0 -46.5 -20.5t-18.5 -46.5t16.5 -43t42.5 -17zM305 723q27 0 45.5 20t18.5 46t-16 43.5t-42 17.5q-29 0 -47.5 -20.5t-18.5 -46.5t17 -43t43 -17zM-10 0h541l51 200l-14 6l-104 -109q-14 -15 -27 -25.5
t-26.5 -18t-30 -11.5t-37.5 -4l-132 -3l43 267h31q48 0 70 -20.5t30 -70.5l5 -31h16l45 279h-18l-13 -28q-25 -51 -54 -72.5t-77 -21.5h-30l42 266l93 -2q24 -1 40 -4.5t28 -11.5t22 -20t22 -30l67 -97l16 6l4 193h-501l-3 -17l89 -21l-89 -561l-96 -21z" />
    <glyph glyph-name="Igrave" unicode="&#xcc;" horiz-adv-x="402" 
d="M270 701l13 8q-11 48 -20.5 94t-20.5 72q-8 19 -26 26t-35 -3q-18 -11 -22.5 -30.5t6.5 -38.5q14 -24 44 -58.5t61 -69.5zM1 0h312l2 17l-91 21l89 561l98 21l3 17h-312l-2 -17l91 -21l-89 -561l-98 -21z" />
    <glyph glyph-name="Iacute" unicode="&#xcd;" horiz-adv-x="402" 
d="M239 700q42 35 83 67.5t63 57.5q17 20 18 41t-14 32q-16 11 -37 4t-36 -27q-20 -26 -42.5 -72t-46.5 -94zM1 0h312l2 17l-91 21l89 561l98 21l3 17h-312l-2 -17l91 -21l-89 -561l-98 -21z" />
    <glyph glyph-name="Icircumflex" unicode="&#xce;" horiz-adv-x="402" 
d="M148 700l139 87l102 -87l14 11l-91 181h-17l-160 -179zM1 0h312l2 17l-91 21l89 561l98 21l3 17h-312l-2 -17l91 -21l-89 -561l-98 -21z" />
    <glyph glyph-name="Idieresis" unicode="&#xcf;" horiz-adv-x="402" 
d="M367 723q28 0 46.5 20t18.5 46t-16.5 43.5t-42.5 17.5q-28 0 -46.5 -20.5t-18.5 -46.5t16.5 -43t42.5 -17zM193 723q27 0 45.5 20t18.5 46t-16 43.5t-42 17.5q-29 0 -47.5 -20.5t-18.5 -46.5t17 -43t43 -17zM1 0h312l2 17l-91 21l89 561l98 21l3 17h-312l-2 -17l91 -21
l-89 -561l-98 -21z" />
    <glyph glyph-name="Ntilde" unicode="&#xd1;" horiz-adv-x="732" 
d="M300 715q11 25 24 35t30 10q16 0 32.5 -6t34 -13t36 -13t39.5 -6q36 0 58.5 27.5t33.5 89.5l-19 6q-11 -25 -24 -35t-30 -10q-16 0 -32.5 6t-34 13t-36 13t-39.5 6q-36 0 -58 -27.5t-33 -89.5zM532 -6h39l94 594l88 32l2 17h-204l-2 -17l78 -32l-64 -401h-7l-207 347
l-60 103h-184l-3 -17l74 -31l-86 -540l-87 -32l-2 -17h204l2 17l-78 32l75 471h7l259 -423z" />
    <glyph glyph-name="Ograve" unicode="&#xd2;" horiz-adv-x="697" 
d="M426 701l13 8q-11 48 -20.5 94t-20.5 72q-8 19 -26 26t-35 -3q-18 -11 -22.5 -30.5t6.5 -38.5q14 -24 44 -58.5t61 -69.5zM321 -15q74 0 137 31t108.5 83.5t71 121.5t25.5 145q0 63 -20 116t-56.5 90.5t-87 58.5t-111.5 21q-75 0 -137.5 -31t-108.5 -83.5t-71.5 -121
t-25.5 -144.5q0 -64 20 -116.5t56.5 -90.5t87 -59t112.5 -21zM320 14q-35 0 -61.5 15.5t-44.5 44t-27 68.5t-9 88q0 66 15 135.5t42.5 126.5t66.5 94t87 37q34 0 60.5 -15.5t44.5 -44t27 -68t9 -88.5q0 -66 -15 -135.5t-42.5 -126.5t-66 -94t-86.5 -37z" />
    <glyph glyph-name="Oacute" unicode="&#xd3;" horiz-adv-x="697" 
d="M382 700q42 35 83 67.5t63 57.5q17 20 18 41t-14 32q-16 11 -37 4t-36 -27q-20 -26 -42.5 -72t-46.5 -94zM321 -15q74 0 137 31t108.5 83.5t71 121.5t25.5 145q0 63 -20 116t-56.5 90.5t-87 58.5t-111.5 21q-75 0 -137.5 -31t-108.5 -83.5t-71.5 -121t-25.5 -144.5
q0 -64 20 -116.5t56.5 -90.5t87 -59t112.5 -21zM320 14q-35 0 -61.5 15.5t-44.5 44t-27 68.5t-9 88q0 66 15 135.5t42.5 126.5t66.5 94t87 37q34 0 60.5 -15.5t44.5 -44t27 -68t9 -88.5q0 -66 -15 -135.5t-42.5 -126.5t-66 -94t-86.5 -37z" />
    <glyph glyph-name="Ocircumflex" unicode="&#xd4;" horiz-adv-x="697" 
d="M284 700l139 87l102 -87l14 11l-91 181h-17l-160 -179zM321 -15q74 0 137 31t108.5 83.5t71 121.5t25.5 145q0 63 -20 116t-56.5 90.5t-87 58.5t-111.5 21q-75 0 -137.5 -31t-108.5 -83.5t-71.5 -121t-25.5 -144.5q0 -64 20 -116.5t56.5 -90.5t87 -59t112.5 -21zM320 14
q-35 0 -61.5 15.5t-44.5 44t-27 68.5t-9 88q0 66 15 135.5t42.5 126.5t66.5 94t87 37q34 0 60.5 -15.5t44.5 -44t27 -68t9 -88.5q0 -66 -15 -135.5t-42.5 -126.5t-66 -94t-86.5 -37z" />
    <glyph glyph-name="Otilde" unicode="&#xd5;" horiz-adv-x="697" 
d="M276 715q11 25 24 35t30 10q16 0 32.5 -6t34 -13t36 -13t39.5 -6q36 0 58.5 27.5t33.5 89.5l-19 6q-11 -25 -24 -35t-30 -10q-16 0 -32.5 6t-34 13t-36 13t-39.5 6q-36 0 -58 -27.5t-33 -89.5zM321 -15q74 0 137 31t108.5 83.5t71 121.5t25.5 145q0 63 -20 116
t-56.5 90.5t-87 58.5t-111.5 21q-75 0 -137.5 -31t-108.5 -83.5t-71.5 -121t-25.5 -144.5q0 -64 20 -116.5t56.5 -90.5t87 -59t112.5 -21zM320 14q-35 0 -61.5 15.5t-44.5 44t-27 68.5t-9 88q0 66 15 135.5t42.5 126.5t66.5 94t87 37q34 0 60.5 -15.5t44.5 -44t27 -68
t9 -88.5q0 -66 -15 -135.5t-42.5 -126.5t-66 -94t-86.5 -37z" />
    <glyph glyph-name="Odieresis" unicode="&#xd6;" horiz-adv-x="697" 
d="M494 723q28 0 46.5 20t18.5 46t-16.5 43.5t-42.5 17.5q-28 0 -46.5 -20.5t-18.5 -46.5t16.5 -43t42.5 -17zM320 723q27 0 45.5 20t18.5 46t-16 43.5t-42 17.5q-29 0 -47.5 -20.5t-18.5 -46.5t17 -43t43 -17zM321 -15q74 0 137 31t108.5 83.5t71 121.5t25.5 145
q0 63 -20 116t-56.5 90.5t-87 58.5t-111.5 21q-75 0 -137.5 -31t-108.5 -83.5t-71.5 -121t-25.5 -144.5q0 -64 20 -116.5t56.5 -90.5t87 -59t112.5 -21zM320 14q-35 0 -61.5 15.5t-44.5 44t-27 68.5t-9 88q0 66 15 135.5t42.5 126.5t66.5 94t87 37q34 0 60.5 -15.5t44.5 -44
t27 -68t9 -88.5q0 -66 -15 -135.5t-42.5 -126.5t-66 -94t-86.5 -37z" />
    <glyph glyph-name="Oslash" unicode="&#xd8;" horiz-adv-x="697" 
d="M78 -36l66 80q71 -59 177 -59q74 0 137 31t108.5 83.5t71 121.5t25.5 145q0 66 -21 119.5t-60 91.5l67 81l-28 24l-67 -82q-33 25 -75 38.5t-91 13.5q-75 0 -137.5 -31t-108.5 -83.5t-71.5 -121t-25.5 -144.5q0 -63 18.5 -114t53.5 -89l-67 -82zM188 154q-10 34 -10 76
q0 66 15 135.5t42.5 126.5t66.5 94t87 37q40 0 69.5 -21t46.5 -61zM320 14q-88 0 -122 96l321 389q11 -42 11 -92q0 -66 -15 -135.5t-42.5 -126.5t-66 -94t-86.5 -37z" />
    <glyph glyph-name="Ugrave" unicode="&#xd9;" horiz-adv-x="713" 
d="M474 701l13 8q-11 48 -20.5 94t-20.5 72q-8 19 -26 26t-35 -3q-18 -11 -22.5 -30.5t6.5 -38.5q14 -24 44 -58.5t61 -69.5zM341 -16q51 0 94.5 16.5t76.5 45.5t54 67.5t29 83.5l62 393l81 30l3 17h-190l-3 -17l71 -30l-60 -372q-6 -36 -20 -68t-37 -56.5t-55.5 -38.5
t-75.5 -14q-38 0 -67.5 10.5t-48 33.5t-25 59t1.5 88l58 367l98 21l2 17h-310l-3 -17l89 -21l-57 -359q-20 -125 37.5 -190.5t194.5 -65.5z" />
    <glyph glyph-name="Uacute" unicode="&#xda;" horiz-adv-x="713" 
d="M436 700q42 35 83 67.5t63 57.5q17 20 18 41t-14 32q-16 11 -37 4t-36 -27q-20 -26 -42.5 -72t-46.5 -94zM341 -16q51 0 94.5 16.5t76.5 45.5t54 67.5t29 83.5l62 393l81 30l3 17h-190l-3 -17l71 -30l-60 -372q-6 -36 -20 -68t-37 -56.5t-55.5 -38.5t-75.5 -14
q-38 0 -67.5 10.5t-48 33.5t-25 59t1.5 88l58 367l98 21l2 17h-310l-3 -17l89 -21l-57 -359q-20 -125 37.5 -190.5t194.5 -65.5z" />
    <glyph glyph-name="Ucircumflex" unicode="&#xdb;" horiz-adv-x="713" 
d="M348 700l139 87l102 -87l14 11l-91 181h-17l-160 -179zM341 -16q51 0 94.5 16.5t76.5 45.5t54 67.5t29 83.5l62 393l81 30l3 17h-190l-3 -17l71 -30l-60 -372q-6 -36 -20 -68t-37 -56.5t-55.5 -38.5t-75.5 -14q-38 0 -67.5 10.5t-48 33.5t-25 59t1.5 88l58 367l98 21
l2 17h-310l-3 -17l89 -21l-57 -359q-20 -125 37.5 -190.5t194.5 -65.5z" />
    <glyph glyph-name="Udieresis" unicode="&#xdc;" horiz-adv-x="713" 
d="M549 723q28 0 46.5 20t18.5 46t-16.5 43.5t-42.5 17.5q-28 0 -46.5 -20.5t-18.5 -46.5t16.5 -43t42.5 -17zM375 723q27 0 45.5 20t18.5 46t-16 43.5t-42 17.5q-29 0 -47.5 -20.5t-18.5 -46.5t17 -43t43 -17zM341 -16q51 0 94.5 16.5t76.5 45.5t54 67.5t29 83.5l62 393
l81 30l3 17h-190l-3 -17l71 -30l-60 -372q-6 -36 -20 -68t-37 -56.5t-55.5 -38.5t-75.5 -14q-38 0 -67.5 10.5t-48 33.5t-25 59t1.5 88l58 367l98 21l2 17h-310l-3 -17l89 -21l-57 -359q-20 -125 37.5 -190.5t194.5 -65.5z" />
    <glyph glyph-name="germandbls" unicode="&#xdf;" horiz-adv-x="509" 
d="M-71 -219q29 0 57.5 12.5t54.5 38.5q22 22 38.5 48t29.5 57.5t22.5 71.5t16.5 91l52 376q7 53 19 96t28 73.5t37 47t47 16.5q34 0 52.5 -24.5t18.5 -72.5q0 -63 -37.5 -129.5t-129.5 -139.5v-10q87 -73 127 -134t40 -110q0 -32 -15 -49t-41 -17q-15 0 -26.5 4t-22.5 11
q13 47 -1.5 75t-46.5 28q-21 0 -36.5 -16t-15.5 -42q0 -42 36.5 -68t99.5 -26q34 0 62 13t48 35t31.5 50.5t11.5 59.5q0 50 -37.5 110t-122.5 129q39 25 72 50t56 52t36 56.5t13 62.5q0 57 -40 95.5t-117 38.5q-42 0 -77.5 -15t-64.5 -41q-27 -25 -45 -51t-30.5 -55
t-20.5 -62t-13 -72l-63 -455q-9 -65 -19.5 -102.5t-22.5 -57.5q-16 32 -40 50t-53 18q-26 0 -41 -15.5t-15 -38.5q0 -26 23.5 -44.5t64.5 -18.5z" />
    <glyph glyph-name="agrave" unicode="&#xe0;" horiz-adv-x="494" 
d="M325 515l13 8q-11 48 -20.5 94t-20.5 72q-8 19 -26 26t-35 -3q-18 -11 -22.5 -30.5t6.5 -38.5q14 -24 44 -58.5t61 -69.5zM150 -11q39 0 69.5 21t59.5 58l5 -3q1 -34 15.5 -55t47.5 -21q30 0 66 13t69 34l-2 7q-34 1 -53.5 4t-28.5 9t-10.5 16t1.5 25l66 375l-7 4
l-53 -29q-38 19 -77 19q-57 0 -110.5 -28.5t-95 -74t-66 -102.5t-24.5 -114q0 -37 10.5 -66.5t28 -49.5t40.5 -31t49 -11zM208 61q-35 0 -56 29t-21 83q0 42 9 84.5t25 77.5t38 57t48 22q47 0 84 -53l-45 -262q-22 -18 -40 -28t-42 -10z" />
    <glyph glyph-name="aacute" unicode="&#xe1;" horiz-adv-x="494" 
d="M273 514q42 35 83 67.5t63 57.5q17 20 18 41t-14 32q-16 11 -37 4t-36 -27q-20 -26 -42.5 -72t-46.5 -94zM150 -11q39 0 69.5 21t59.5 58l5 -3q1 -34 15.5 -55t47.5 -21q30 0 66 13t69 34l-2 7q-34 1 -53.5 4t-28.5 9t-10.5 16t1.5 25l66 375l-7 4l-53 -29q-38 19 -77 19
q-57 0 -110.5 -28.5t-95 -74t-66 -102.5t-24.5 -114q0 -37 10.5 -66.5t28 -49.5t40.5 -31t49 -11zM208 61q-35 0 -56 29t-21 83q0 42 9 84.5t25 77.5t38 57t48 22q47 0 84 -53l-45 -262q-22 -18 -40 -28t-42 -10z" />
    <glyph glyph-name="acircumflex" unicode="&#xe2;" horiz-adv-x="494" 
d="M200 514l139 87l102 -87l14 11l-91 181h-17l-160 -179zM150 -11q39 0 69.5 21t59.5 58l5 -3q1 -34 15.5 -55t47.5 -21q30 0 66 13t69 34l-2 7q-34 1 -53.5 4t-28.5 9t-10.5 16t1.5 25l66 375l-7 4l-53 -29q-38 19 -77 19q-57 0 -110.5 -28.5t-95 -74t-66 -102.5
t-24.5 -114q0 -37 10.5 -66.5t28 -49.5t40.5 -31t49 -11zM208 61q-35 0 -56 29t-21 83q0 42 9 84.5t25 77.5t38 57t48 22q47 0 84 -53l-45 -262q-22 -18 -40 -28t-42 -10z" />
    <glyph glyph-name="atilde" unicode="&#xe3;" horiz-adv-x="494" 
d="M191 529q11 25 24 35t30 10q16 0 32.5 -6t34 -13t36 -13t39.5 -6q36 0 58.5 27.5t33.5 89.5l-19 6q-11 -25 -24 -35t-30 -10q-16 0 -32.5 6t-34 13t-36 13t-39.5 6q-36 0 -58 -27.5t-33 -89.5zM150 -11q39 0 69.5 21t59.5 58l5 -3q1 -34 15.5 -55t47.5 -21q30 0 66 13
t69 34l-2 7q-34 1 -53.5 4t-28.5 9t-10.5 16t1.5 25l66 375l-7 4l-53 -29q-38 19 -77 19q-57 0 -110.5 -28.5t-95 -74t-66 -102.5t-24.5 -114q0 -37 10.5 -66.5t28 -49.5t40.5 -31t49 -11zM208 61q-35 0 -56 29t-21 83q0 42 9 84.5t25 77.5t38 57t48 22q47 0 84 -53
l-45 -262q-22 -18 -40 -28t-42 -10z" />
    <glyph glyph-name="adieresis" unicode="&#xe4;" horiz-adv-x="494" 
d="M408 537q28 0 46.5 20t18.5 46t-16.5 43.5t-42.5 17.5q-28 0 -46.5 -20.5t-18.5 -46.5t16.5 -43t42.5 -17zM234 537q27 0 45.5 20t18.5 46t-16 43.5t-42 17.5q-29 0 -47.5 -20.5t-18.5 -46.5t17 -43t43 -17zM150 -11q39 0 69.5 21t59.5 58l5 -3q1 -34 15.5 -55t47.5 -21
q30 0 66 13t69 34l-2 7q-34 1 -53.5 4t-28.5 9t-10.5 16t1.5 25l66 375l-7 4l-53 -29q-38 19 -77 19q-57 0 -110.5 -28.5t-95 -74t-66 -102.5t-24.5 -114q0 -37 10.5 -66.5t28 -49.5t40.5 -31t49 -11zM208 61q-35 0 -56 29t-21 83q0 42 9 84.5t25 77.5t38 57t48 22
q47 0 84 -53l-45 -262q-22 -18 -40 -28t-42 -10z" />
    <glyph glyph-name="aring" unicode="&#xe5;" horiz-adv-x="494" 
d="M314 510q25 0 45 9t33.5 24t21 33.5t7.5 38.5q0 35 -22.5 58t-62.5 23q-26 0 -45.5 -9t-33.5 -24t-21 -34t-7 -38q0 -35 22.5 -58t62.5 -23zM150 -11q39 0 69.5 21t59.5 58l5 -3q1 -34 15.5 -55t47.5 -21q30 0 66 13t69 34l-2 7q-34 1 -53.5 4t-28.5 9t-10.5 16t1.5 25
l66 375l-7 4l-53 -29q-38 19 -77 19q-57 0 -110.5 -28.5t-95 -74t-66 -102.5t-24.5 -114q0 -37 10.5 -66.5t28 -49.5t40.5 -31t49 -11zM317 531q-14 0 -23 12.5t-9 40.5q0 14 2.5 30t8 29.5t14.5 22.5t23 9t23 -12.5t9 -40.5q0 -14 -2.5 -30t-8.5 -29.5t-15 -22.5t-22 -9z
M208 61q-35 0 -56 29t-21 83q0 42 9 84.5t25 77.5t38 57t48 22q47 0 84 -53l-45 -262q-22 -18 -40 -28t-42 -10z" />
    <glyph glyph-name="ae" unicode="&#xe6;" horiz-adv-x="676" 
d="M295 81q19 -41 57 -66.5t95 -25.5t107 30t77 78l-7 9q-28 -23 -61 -37t-61 -14q-65 0 -93.5 43t-21.5 124q78 -1 131.5 12t85.5 34t46 48t14 53q0 40 -31.5 68.5t-88.5 28.5q-35 0 -66.5 -10t-60.5 -28q-17 18 -40.5 28t-55.5 10q-58 0 -112.5 -31.5t-97 -80t-68 -107
t-25.5 -113.5q0 -35 10 -61.5t27.5 -45.5t41.5 -28.5t52 -9.5q48 0 81 25t60 67h5zM390 249q6 35 18.5 68t30.5 59t40 42t46 16q20 0 30.5 -13.5t10.5 -34.5q0 -23 -9.5 -48t-30.5 -45.5t-54.5 -33t-81.5 -10.5zM344 361q-32 -41 -49.5 -91t-17.5 -103q0 -35 10 -65
q-20 -20 -39 -30t-42 -10q-35 0 -56.5 24.5t-21.5 74.5q0 42 9.5 87t27.5 82.5t43 61.5t56 24q22 0 40.5 -13t39.5 -42z" />
    <glyph glyph-name="ccedilla" unicode="&#xe7;" horiz-adv-x="414" 
d="M151 -257q50 0 81.5 28t31.5 70q0 36 -21.5 59.5t-59.5 31.5l80 67q34 12 63.5 36t50.5 59l-8 9q-26 -21 -56.5 -34t-63.5 -13q-50 0 -82.5 31.5t-32.5 101.5q0 49 14.5 94t38.5 80t54.5 56t62.5 22q-11 -28 -11 -58q0 -32 17 -51t46 -19q24 0 39.5 18t15.5 45
q0 17 -7.5 33t-22.5 29t-37.5 20.5t-52.5 7.5q-53 0 -100.5 -24t-84 -65t-58 -94.5t-21.5 -111.5q0 -38 11.5 -70.5t34 -57.5t54.5 -39.5t74 -14.5h10l-113 -97l14 -14q13 4 31 4q26 0 40.5 -16t14.5 -43q0 -28 -13.5 -43t-34.5 -15q-9 0 -15 1.5t-11 3.5q13 11 13 28
q0 14 -8 24.5t-24 10.5q-15 0 -24 -10.5t-9 -26.5q0 -21 21 -37t58 -16z" />
    <glyph glyph-name="egrave" unicode="&#xe8;" horiz-adv-x="424" 
d="M286 515l13 8q-11 48 -20.5 94t-20.5 72q-8 19 -26 26t-35 -3q-18 -11 -22.5 -30.5t6.5 -38.5q14 -24 44 -58.5t61 -69.5zM135 222q78 -1 131.5 12t85.5 34t46 48t14 53q0 40 -31.5 68.5t-88.5 28.5q-56 0 -105 -25.5t-85 -67t-57 -95.5t-21 -111q0 -36 11 -68.5
t32.5 -56.5t53.5 -38.5t74 -14.5q57 0 107 30t77 78l-7 9q-28 -23 -61 -37t-61 -14q-65 0 -93.5 43t-21.5 124zM138 249q6 35 18.5 68t30.5 59t40 42t46 16q20 0 30.5 -13.5t10.5 -34.5q0 -23 -9.5 -48t-30.5 -45.5t-54.5 -33t-81.5 -10.5z" />
    <glyph glyph-name="eacute" unicode="&#xe9;" horiz-adv-x="424" 
d="M238 514q42 35 83 67.5t63 57.5q17 20 18 41t-14 32q-16 11 -37 4t-36 -27q-20 -26 -42.5 -72t-46.5 -94zM135 222q78 -1 131.5 12t85.5 34t46 48t14 53q0 40 -31.5 68.5t-88.5 28.5q-56 0 -105 -25.5t-85 -67t-57 -95.5t-21 -111q0 -36 11 -68.5t32.5 -56.5t53.5 -38.5
t74 -14.5q57 0 107 30t77 78l-7 9q-28 -23 -61 -37t-61 -14q-65 0 -93.5 43t-21.5 124zM138 249q6 35 18.5 68t30.5 59t40 42t46 16q20 0 30.5 -13.5t10.5 -34.5q0 -23 -9.5 -48t-30.5 -45.5t-54.5 -33t-81.5 -10.5z" />
    <glyph glyph-name="ecircumflex" unicode="&#xea;" horiz-adv-x="424" 
d="M158 514l139 87l102 -87l14 11l-91 181h-17l-160 -179zM135 222q78 -1 131.5 12t85.5 34t46 48t14 53q0 40 -31.5 68.5t-88.5 28.5q-56 0 -105 -25.5t-85 -67t-57 -95.5t-21 -111q0 -36 11 -68.5t32.5 -56.5t53.5 -38.5t74 -14.5q57 0 107 30t77 78l-7 9q-28 -23 -61 -37
t-61 -14q-65 0 -93.5 43t-21.5 124zM138 249q6 35 18.5 68t30.5 59t40 42t46 16q20 0 30.5 -13.5t10.5 -34.5q0 -23 -9.5 -48t-30.5 -45.5t-54.5 -33t-81.5 -10.5z" />
    <glyph glyph-name="edieresis" unicode="&#xeb;" horiz-adv-x="424" 
d="M366 537q28 0 46.5 20t18.5 46t-16.5 43.5t-42.5 17.5q-28 0 -46.5 -20.5t-18.5 -46.5t16.5 -43t42.5 -17zM192 537q27 0 45.5 20t18.5 46t-16 43.5t-42 17.5q-29 0 -47.5 -20.5t-18.5 -46.5t17 -43t43 -17zM135 222q78 -1 131.5 12t85.5 34t46 48t14 53q0 40 -31.5 68.5
t-88.5 28.5q-56 0 -105 -25.5t-85 -67t-57 -95.5t-21 -111q0 -36 11 -68.5t32.5 -56.5t53.5 -38.5t74 -14.5q57 0 107 30t77 78l-7 9q-28 -23 -61 -37t-61 -14q-65 0 -93.5 43t-21.5 124zM138 249q6 35 18.5 68t30.5 59t40 42t46 16q20 0 30.5 -13.5t10.5 -34.5
q0 -23 -9.5 -48t-30.5 -45.5t-54.5 -33t-81.5 -10.5z" />
    <glyph glyph-name="igrave" unicode="&#xec;" horiz-adv-x="275" 
d="M194 515l13 8q-11 48 -20.5 94t-20.5 72q-8 19 -26 26t-35 -3q-18 -11 -22.5 -30.5t6.5 -38.5q14 -24 44 -58.5t61 -69.5zM118 -11q30 0 66.5 13t70.5 34l-2 7q-34 1 -53.5 3.5t-29 8.5t-11 16.5t1.5 26.5l67 371l-4 3l-180 -50v-10l65 -41l-52 -286q-9 -45 5 -70.5
t56 -25.5z" />
    <glyph glyph-name="iacute" unicode="&#xed;" horiz-adv-x="275" 
d="M128 514q42 35 83 67.5t63 57.5q17 20 18 41t-14 32q-16 11 -37 4t-36 -27q-20 -26 -42.5 -72t-46.5 -94zM118 -11q30 0 66.5 13t70.5 34l-2 7q-34 1 -53.5 3.5t-29 8.5t-11 16.5t1.5 26.5l67 371l-4 3l-180 -50v-10l65 -41l-52 -286q-9 -45 5 -70.5t56 -25.5z" />
    <glyph glyph-name="icircumflex" unicode="&#xee;" horiz-adv-x="275" 
d="M50 514l139 87l102 -87l14 11l-91 181h-17l-160 -179zM118 -11q30 0 66.5 13t70.5 34l-2 7q-34 1 -53.5 3.5t-29 8.5t-11 16.5t1.5 26.5l67 371l-4 3l-180 -50v-10l65 -41l-52 -286q-9 -45 5 -70.5t56 -25.5z" />
    <glyph glyph-name="idieresis" unicode="&#xef;" horiz-adv-x="275" 
d="M267 537q28 0 46.5 20t18.5 46t-16.5 43.5t-42.5 17.5q-28 0 -46.5 -20.5t-18.5 -46.5t16.5 -43t42.5 -17zM93 537q27 0 45.5 20t18.5 46t-16 43.5t-42 17.5q-29 0 -47.5 -20.5t-18.5 -46.5t17 -43t43 -17zM118 -11q30 0 66.5 13t70.5 34l-2 7q-34 1 -53.5 3.5t-29 8.5
t-11 16.5t1.5 26.5l67 371l-4 3l-180 -50v-10l65 -41l-52 -286q-9 -45 5 -70.5t56 -25.5z" />
    <glyph glyph-name="ntilde" unicode="&#xf1;" horiz-adv-x="526" 
d="M169 529q11 25 24 35t30 10q16 0 32.5 -6t34 -13t36 -13t39.5 -6q36 0 58.5 27.5t33.5 89.5l-19 6q-11 -25 -24 -35t-30 -10q-16 0 -32.5 6t-34 13t-36 13t-39.5 6q-36 0 -58 -27.5t-33 -89.5zM384 -11q29 0 64.5 13t68.5 34l-2 7q-32 1 -51.5 3.5t-29.5 8.5t-11.5 16
t1.5 26l39 205q7 36 6 66t-10.5 51.5t-29 34t-49.5 12.5q-38 0 -79.5 -23t-92.5 -70l-4 3l14 93l-4 3l-170 -50v-10l63 -41l-62 -371h101l59 352q31 17 53 25.5t48 8.5q46 0 55 -29t-1 -83l-33 -173q-3 -13 -5 -27.5t-2 -25.5q0 -26 14.5 -42.5t49.5 -16.5z" />
    <glyph glyph-name="ograve" unicode="&#xf2;" horiz-adv-x="483" 
d="M295 515l13 8q-11 48 -20.5 94t-20.5 72q-8 19 -26 26t-35 -3q-18 -11 -22.5 -30.5t6.5 -38.5q14 -24 44 -58.5t61 -69.5zM200 -11q56 0 103 25.5t81 67t53 94t19 106.5q0 91 -46 137.5t-125 46.5q-56 0 -103 -25.5t-81.5 -67t-54 -94t-19.5 -106.5q0 -90 47 -137
t126 -47zM223 24q-42 0 -63 39.5t-21 107.5q0 39 7.5 84.5t22.5 84.5t38 65t54 26q41 0 62.5 -39.5t21.5 -106.5q0 -39 -7.5 -84.5t-22.5 -85t-38 -65.5t-54 -26z" />
    <glyph glyph-name="oacute" unicode="&#xf3;" horiz-adv-x="483" 
d="M256 514q42 35 83 67.5t63 57.5q17 20 18 41t-14 32q-16 11 -37 4t-36 -27q-20 -26 -42.5 -72t-46.5 -94zM200 -11q56 0 103 25.5t81 67t53 94t19 106.5q0 91 -46 137.5t-125 46.5q-56 0 -103 -25.5t-81.5 -67t-54 -94t-19.5 -106.5q0 -90 47 -137t126 -47zM223 24
q-42 0 -63 39.5t-21 107.5q0 39 7.5 84.5t22.5 84.5t38 65t54 26q41 0 62.5 -39.5t21.5 -106.5q0 -39 -7.5 -84.5t-22.5 -85t-38 -65.5t-54 -26z" />
    <glyph glyph-name="ocircumflex" unicode="&#xf4;" horiz-adv-x="483" 
d="M163 514l139 87l102 -87l14 11l-91 181h-17l-160 -179zM200 -11q56 0 103 25.5t81 67t53 94t19 106.5q0 91 -46 137.5t-125 46.5q-56 0 -103 -25.5t-81.5 -67t-54 -94t-19.5 -106.5q0 -90 47 -137t126 -47zM223 24q-42 0 -63 39.5t-21 107.5q0 39 7.5 84.5t22.5 84.5
t38 65t54 26q41 0 62.5 -39.5t21.5 -106.5q0 -39 -7.5 -84.5t-22.5 -85t-38 -65.5t-54 -26z" />
    <glyph glyph-name="otilde" unicode="&#xf5;" horiz-adv-x="483" 
d="M165 529q11 25 24 35t30 10q16 0 32.5 -6t34 -13t36 -13t39.5 -6q36 0 58.5 27.5t33.5 89.5l-19 6q-11 -25 -24 -35t-30 -10q-16 0 -32.5 6t-34 13t-36 13t-39.5 6q-36 0 -58 -27.5t-33 -89.5zM200 -11q56 0 103 25.5t81 67t53 94t19 106.5q0 91 -46 137.5t-125 46.5
q-56 0 -103 -25.5t-81.5 -67t-54 -94t-19.5 -106.5q0 -90 47 -137t126 -47zM223 24q-42 0 -63 39.5t-21 107.5q0 39 7.5 84.5t22.5 84.5t38 65t54 26q41 0 62.5 -39.5t21.5 -106.5q0 -39 -7.5 -84.5t-22.5 -85t-38 -65.5t-54 -26z" />
    <glyph glyph-name="odieresis" unicode="&#xf6;" horiz-adv-x="483" 
d="M389 537q28 0 46.5 20t18.5 46t-16.5 43.5t-42.5 17.5q-28 0 -46.5 -20.5t-18.5 -46.5t16.5 -43t42.5 -17zM215 537q27 0 45.5 20t18.5 46t-16 43.5t-42 17.5q-29 0 -47.5 -20.5t-18.5 -46.5t17 -43t43 -17zM200 -11q56 0 103 25.5t81 67t53 94t19 106.5q0 91 -46 137.5
t-125 46.5q-56 0 -103 -25.5t-81.5 -67t-54 -94t-19.5 -106.5q0 -90 47 -137t126 -47zM223 24q-42 0 -63 39.5t-21 107.5q0 39 7.5 84.5t22.5 84.5t38 65t54 26q41 0 62.5 -39.5t21.5 -106.5q0 -39 -7.5 -84.5t-22.5 -85t-38 -65.5t-54 -26z" />
    <glyph glyph-name="divide" unicode="&#xf7;" horiz-adv-x="505" 
d="M284 404q25 0 42 17t17 42t-17 42.5t-42 17.5q-26 0 -43 -17.5t-17 -42.5t17 -42t43 -17zM463 281l8 51h-418l-8 -51h418zM234 90q25 0 42 17t17 43q0 25 -17 42t-42 17q-26 0 -43 -17t-17 -42q0 -26 17 -43t43 -17z" />
    <glyph glyph-name="oslash" unicode="&#xf8;" horiz-adv-x="483" 
d="M53 -41l46 57q40 -27 101 -27q56 0 103 25.5t81 67t53 94t19 106.5q0 43 -10.5 76t-30.5 56l7 9t15 19.5t15 19l7 8.5l-27 24l-45 -56q-40 28 -102 28q-56 0 -103 -25.5t-81.5 -67t-54 -94t-19.5 -106.5q0 -43 11.5 -77t32.5 -57l-45 -57zM141 128q-3 21 -3 44
q0 38 7.5 83.5t22.5 84.5t38 65t55 26q53 0 72 -61zM222 24q-24 0 -42 14t-29 44l192 242q3 -20 3 -41q0 -39 -7.5 -84t-23 -84t-39 -65t-54.5 -26z" />
    <glyph glyph-name="ugrave" unicode="&#xf9;" horiz-adv-x="534" 
d="M306 515l13 8q-11 48 -20.5 94t-20.5 72q-8 19 -26 26t-35 -3q-18 -11 -22.5 -30.5t6.5 -38.5q14 -24 44 -58.5t61 -69.5zM152 -11q38 0 78.5 22.5t88.5 69.5l5 -3q-4 -41 10 -65t53 -24q30 0 64 13t67 34l-2 7q-33 1 -52.5 3.5t-29 8.5t-11 16t1.5 26l67 372l-4 3
l-178 -50v-10l65 -41l-48 -265q-29 -17 -52.5 -26t-51.5 -9q-23 0 -36 7.5t-18.5 21.5t-5 34.5t5.5 46.5l54 288l-4 3l-177 -50v-10l64 -41l-41 -218q-6 -34 -5.5 -63.5t10.5 -52t30 -35.5t52 -13z" />
    <glyph glyph-name="uacute" unicode="&#xfa;" horiz-adv-x="534" 
d="M267 514q42 35 83 67.5t63 57.5q17 20 18 41t-14 32q-16 11 -37 4t-36 -27q-20 -26 -42.5 -72t-46.5 -94zM152 -11q38 0 78.5 22.5t88.5 69.5l5 -3q-4 -41 10 -65t53 -24q30 0 64 13t67 34l-2 7q-33 1 -52.5 3.5t-29 8.5t-11 16t1.5 26l67 372l-4 3l-178 -50v-10l65 -41
l-48 -265q-29 -17 -52.5 -26t-51.5 -9q-23 0 -36 7.5t-18.5 21.5t-5 34.5t5.5 46.5l54 288l-4 3l-177 -50v-10l64 -41l-41 -218q-6 -34 -5.5 -63.5t10.5 -52t30 -35.5t52 -13z" />
    <glyph glyph-name="ucircumflex" unicode="&#xfb;" horiz-adv-x="534" 
d="M180 514l139 87l102 -87l14 11l-91 181h-17l-160 -179zM152 -11q38 0 78.5 22.5t88.5 69.5l5 -3q-4 -41 10 -65t53 -24q30 0 64 13t67 34l-2 7q-33 1 -52.5 3.5t-29 8.5t-11 16t1.5 26l67 372l-4 3l-178 -50v-10l65 -41l-48 -265q-29 -17 -52.5 -26t-51.5 -9
q-23 0 -36 7.5t-18.5 21.5t-5 34.5t5.5 46.5l54 288l-4 3l-177 -50v-10l64 -41l-41 -218q-6 -34 -5.5 -63.5t10.5 -52t30 -35.5t52 -13z" />
    <glyph glyph-name="udieresis" unicode="&#xfc;" horiz-adv-x="534" 
d="M390 537q28 0 46.5 20t18.5 46t-16.5 43.5t-42.5 17.5q-28 0 -46.5 -20.5t-18.5 -46.5t16.5 -43t42.5 -17zM216 537q27 0 45.5 20t18.5 46t-16 43.5t-42 17.5q-29 0 -47.5 -20.5t-18.5 -46.5t17 -43t43 -17zM152 -11q38 0 78.5 22.5t88.5 69.5l5 -3q-4 -41 10 -65t53 -24
q30 0 64 13t67 34l-2 7q-33 1 -52.5 3.5t-29 8.5t-11 16t1.5 26l67 372l-4 3l-178 -50v-10l65 -41l-48 -265q-29 -17 -52.5 -26t-51.5 -9q-23 0 -36 7.5t-18.5 21.5t-5 34.5t5.5 46.5l54 288l-4 3l-177 -50v-10l64 -41l-41 -218q-6 -34 -5.5 -63.5t10.5 -52t30 -35.5t52 -13
z" />
    <glyph glyph-name="ydieresis" unicode="&#xff;" horiz-adv-x="480" 
d="M372 537q28 0 46.5 20t18.5 46t-16.5 43.5t-42.5 17.5q-28 0 -46.5 -20.5t-18.5 -46.5t16.5 -43t42.5 -17zM198 537q27 0 45.5 20t18.5 46t-16 43.5t-42 17.5q-29 0 -47.5 -20.5t-18.5 -46.5t17 -43t43 -17zM68 -219q30 0 57 15t56 44q42 41 83 109.5t80 150t75.5 167.5
t69.5 163l-92 44h-8q-7 -40 -16.5 -86.5t-21 -95.5t-25 -98t-27.5 -94h-5q-8 51 -18 100t-21.5 91t-22.5 74.5t-21 50.5q-13 25 -28.5 37.5t-41.5 12.5q-31 0 -63.5 -26.5t-61.5 -62.5l6 -8q23 8 38 11.5t24 3.5q14 0 23 -8t17 -28q11 -26 25 -68t28 -92.5t27.5 -106
t24.5 -109.5q-26 -47 -60.5 -88t-67.5 -59q2 42 -15 71t-49 29q-26 0 -40 -18.5t-14 -43.5q0 -33 22.5 -57.5t62.5 -24.5z" />
    <glyph glyph-name="dotaccent" unicode="&#x2d9;" horiz-adv-x="190" 
d="M142 542q27 0 45.5 20.5t18.5 46.5t-16 43t-42 17q-28 0 -46.5 -20t-18.5 -46t16.5 -43.5t42.5 -17.5z" />
    <glyph glyph-name="apple" unicode="&#xf8ff;" horiz-adv-x="694" 
d="M644 -200v921h-101l-29 79h-334l-30 -79h-100v-554q14 0 23 -9.5t9 -22.5q0 -14 -9 -23t-23 -9v-303h207l8 14h163l8 -14h208zM400 563h58v-14h-43v-66h38v-14h-38v-78h-15v172zM184 563h15v-79h47v79h15v-172h-15v79h-47v-79h-15v172zM460 394v16q4 -2 10 -4t10 -2
q16 0 16 22v137h16v-137q0 -36 -31 -36q-5 0 -11.5 1t-9.5 3zM349 438q2 7 4.5 15t4.5 15l13 -3q-2 -11 -5.5 -20.5t-7.5 -18.5l16 -30l-11 -8l-12 24h-1q-4 -9 -10.5 -16.5t-16.5 -7.5q-14 0 -22.5 11t-8.5 28q0 27 23 45q-6 11 -10 19.5t-4 19.5t7.5 21t20.5 10
q14 0 20.5 -10t6.5 -21q0 -12 -6.5 -22.5t-16.5 -19.5zM523 323h8v-24l21 24h10l-18 -20l19 -26h-9l-16 20l-7 -7v-13h-8v46zM488 292h-12v-15h-8v46h21q8 0 12 -4.5t4 -9.5q0 -12 -10 -15l12 -17h-9zM426 276q-11 0 -17 7t-6 17q0 9 6 16.5t17 7.5t17.5 -7.5t6.5 -16.5
q0 -10 -6.5 -17t-17.5 -7zM370 301l13 22h9l-18 -29v-17h-8v17l-18 29h9zM193 323h33v-7h-25v-12h22v-7h-22v-13h25v-7h-33v46zM132 323h7l25 -32v32h8v-46h-7l-25 32v-32h-8v46zM241 323h8l10 -35h1l11 35h8l10 -35h1l10 35h8l-14 -47h-8l-11 34h-1l-10 -34h-8zM327 479
q15 16 15 32q0 8 -3.5 13.5t-9.5 5.5t-10 -5.5t-4 -13.5t3.5 -15zM342 423l-20 39q-15 -15 -15 -33q0 -11 4.5 -19t12.5 -8q5 0 10.5 6.5t7.5 14.5zM488 299q9 0 9 9q0 8 -10 8h-11v-17h12zM426 283q7 0 11.5 5t4.5 12q0 6 -4.5 11.5t-11.5 5.5t-11 -5.5t-4 -11.5
q0 -7 4 -12t11 -5z" />
    <glyph glyph-name="approxequal" unicode="&#x2248;" horiz-adv-x="828" 
d="M247 -221q29 0 57.5 14t54.5 40q49 49 71 115t35 157l39 292h163l-57 -312q-8 -45 5.5 -70.5t55.5 -25.5q29 0 66 13t71 34l-2 7q-34 1 -54 3.5t-29.5 8.5t-10.5 16.5t2 26.5l66 371l-4 3l-74 -24h-191l4 28q17 117 50 174.5t89 57.5q11 0 19 -4q0 -60 23.5 -89t54.5 -29
q25 0 41 16.5t16 39.5q0 15 -7.5 32.5t-24.5 32t-44 24.5t-65 10q-74 0 -129 -39q-15 -11 -29 -25q-14 23 -44 39.5t-78 16.5q-85 0 -146 -55q-82 -70 -104 -208l-3 -16l-112 -39l-3 -18h106l-56 -401q-9 -66 -19 -103t-22 -57q-17 32 -40.5 50t-52.5 18q-26 0 -41.5 -15.5
t-15.5 -38.5q0 -26 24 -44.5t64 -18.5q29 0 57.5 12.5t54.5 38.5q22 22 39 48t30 57.5t22.5 71t16.5 90.5l40 292h177l-58 -437q-6 -48 -13.5 -76t-18.5 -46q-15 24 -38 39.5t-49 15.5t-41 -15.5t-15 -39.5t21 -41.5t56 -17.5zM233 448l3 23q18 121 50.5 174t87.5 55
q4 0 7 -1t5 -2q-3 -51 15 -79t46 -33q-11 -25 -19 -52t-13 -59q0 -1 -1 -7t-2 -12.5l-1 -6.5h-178z" />
    <glyph glyph-name="greaterequal" unicode="&#x2265;" 
d="M25 -200h450v1000h-450v-1000z" />
    <glyph glyph-name="infinity" unicode="&#x221e;" 
d="M25 -200h450v1000h-450v-1000z" />
    <glyph glyph-name="integral" unicode="&#x222b;" 
d="M25 -200h450v1000h-450v-1000z" />
    <glyph glyph-name="lessequal" unicode="&#x2264;" 
d="M25 -200h450v1000h-450v-1000z" />
    <glyph glyph-name="lozenge" unicode="&#x25ca;" horiz-adv-x="504" 
d="M495 617l26 9v11h-87l-11 -31l-32 -89h-2l-34 89l-11 31h-88v-11l24 -9v-141l-24 -12v-10h68v10l-25 12v137h4l63 -159h18l61 159h3v-140l-21 -9v-10h94v10l-26 9v144zM228 511q0 23 -15.5 34t-39.5 19t-36 16t-12 22q0 12 6.5 19.5t17.5 7.5q12 0 25 -10.5t34 -39.5
l12 1l-5 62h-10l-8 -9q-8 3 -20 5.5t-24 2.5q-26 0 -45.5 -16t-19.5 -42q0 -25 17 -36.5t40 -19.5t35 -15.5t12 -21.5t-8 -21.5t-21 -7.5q-32 0 -69 56h-11l2 -70h10l9 11q10 -4 25.5 -7t29.5 -3q28 0 48.5 16.5t20.5 46.5z" />
    <glyph glyph-name="nonbreakingspace" unicode="&#xa0;" horiz-adv-x="100" 
 />
    <glyph glyph-name="notequal" unicode="&#x2260;" 
d="M25 -200h450v1000h-450v-1000z" />
    <glyph glyph-name="partialdiff" unicode="&#x2202;" 
d="M25 -200h450v1000h-450v-1000z" />
    <glyph glyph-name="pi" unicode="&#x3c0;" horiz-adv-x="738" 
d="M376 -15q69 0 130 26t106 71.5t71.5 106.5t26.5 130t-26.5 129.5t-71.5 106t-106 71.5t-130 26t-130 -26t-106 -71.5t-71.5 -106t-26.5 -129.5t26.5 -130t71.5 -106.5t106 -71.5t130 -26zM376 14q-62 0 -117 24t-96 65.5t-64.5 97t-23.5 118.5q0 62 23.5 117t64.5 96.5
t96 65.5t117 24t117 -24t95.5 -65.5t64 -96.5t23.5 -117q0 -63 -23.5 -118.5t-64 -97t-95.5 -65.5t-117 -24zM232 150h177v16l-52 12v110q28 -5 55 -5q29 0 52 9t38.5 23.5t24 33t8.5 38.5q0 19 -7 37.5t-22 32t-39.5 22t-58.5 8.5h-176v-15l46 -14v-280l-46 -12v-16z
M390 311q-7 -1 -17 -1.5t-16 -0.5v155q5 1 15 1q11 0 18 -1q63 -5 63 -76q0 -35 -15.5 -55t-47.5 -22z" />
    <glyph glyph-name="product" unicode="&#x220f;" 
d="M25 -200h450v1000h-450v-1000z" />
    <glyph glyph-name="radical" unicode="&#x221a;" horiz-adv-x="827" 
d="M246 -221q61 0 113 54q49 49 71 115t35 157l39 292h160l-53 -312q-8 -45 5.5 -70.5t56.5 -25.5q29 0 65.5 13t69.5 34l-2 7q-33 1 -52.5 3.5t-29 8.5t-11 16.5t1.5 26.5l106 642l-4 3l-74 -22q-15 9 -35 14.5t-44 5.5q-68 0 -123 -40l-16 -12t-15 -14q-14 23 -44 40.5
t-80 17.5q-41 0 -77.5 -13.5t-67.5 -41.5q-82 -70 -104 -208l-3 -16l-112 -39l-3 -18h106l-56 -401q-9 -66 -19 -103t-22 -57q-17 32 -40.5 50t-52.5 18q-26 0 -41.5 -15.5t-15.5 -38.5q0 -26 24 -44.5t64 -18.5q29 0 57.5 12.5t54.5 38.5q22 22 39 48t30 57.5t22.5 71
t16.5 90.5l40 292h177l-58 -437q-7 -48 -14 -76t-18 -46q-16 24 -38.5 39.5t-48.5 15.5t-41.5 -15.5t-15.5 -39.5t21 -41.5t56 -17.5zM511 448l4 28q9 65 21.5 108.5t28 69.5t34 37t39.5 13q4 0 7.5 -1t5.5 -2q0 -38 13 -62t35 -35l-27 -156h-161zM233 448l3 23
q18 121 50.5 174t86.5 55q5 0 8 -1t5 -2q-3 -52 15 -79.5t46 -32.5q-11 -24 -19 -51.5t-13 -59.5q0 -1 -1 -7t-2 -12.5l-1 -6.5h-178z" />
    <glyph glyph-name="summation" unicode="&#x2211;" 
d="M25 -200h450v1000h-450v-1000z" />
    <glyph glyph-name="breve" unicode="&#x2d8;" horiz-adv-x="340" 
d="M214 525q62 0 101.5 38.5t57.5 108.5l-22 8q-22 -38 -52.5 -59t-74.5 -21q-45 0 -71 19.5t-39 59.5l-23 -7q-3 -69 28 -108t95 -39z" />
    <glyph glyph-name="fraction" unicode="&#x2215;" horiz-adv-x="540" 
d="M60 -34l230 329l235 325l-32 25l-230 -329l-235 -326z" />
    <glyph glyph-name="Lslash" unicode="&#x141;" horiz-adv-x="595" 
d="M-10 0h522l46 205l-13 6l-101 -111q-14 -16 -27 -27.5t-27 -19t-30.5 -11.5t-37.5 -5l-111 -2l44 277l139 37l-9 39l-123 -33l39 243l99 22l3 17h-311l-3 -17l89 -21l-44 -278l-83 -22l8 -39l68 18l-38 -240l-96 -21z" />
    <glyph glyph-name="lslash" unicode="&#x142;" horiz-adv-x="289" 
d="M120 -11q29 0 66 13t70 34l-2 7q-34 1 -53.5 3.5t-29 8.5t-10.5 16.5t2 26.5l41 250l93 25l-10 38l-76 -21l58 350l-4 3l-176 -50v-10l63 -41l-47 -282l-79 -21l9 -37l63 17l-39 -234q-8 -45 5 -70.5t56 -25.5z" />
    <glyph glyph-name="Zcaron" unicode="&#x17d;" horiz-adv-x="622" 
d="M350 708h17l160 179l-13 13l-139 -87l-101 87l-15 -11zM-11 0h520l50 199l-12 6l-95 -106q-14 -16 -26.5 -27t-26 -18.5t-29 -11t-36.5 -3.5l-184 -2l471 590l-2 10h-490l-48 -183l12 -6l84 83q20 19 35.5 32t30.5 20.5t30.5 11t35.5 3.5l151 1l-473 -589z" />
    <glyph glyph-name="zcaron" unicode="&#x17e;" horiz-adv-x="429" 
d="M246 522h17l160 179l-13 13l-139 -87l-101 87l-15 -11zM299 -11q14 0 26 6t24 22t25 45t29 75l-8 4q-17 -17 -29.5 -28t-24 -16.5t-23.5 -6t-27 2.5l-144 31l304 330l-16 15l-70 -37l-82 17q-26 8 -46.5 13.5t-45.5 5.5q-35 0 -60.5 -14t-48.5 -39q-17 -18 -29 -42
t-12 -52q0 -27 17.5 -46t44.5 -19q22 0 34.5 14.5t12.5 36.5q0 20 -15 38t-50 27l1 4q14 7 37 7q58 0 190 -33l-309 -338l15 -13l84 46l88 -30q39 -14 64.5 -20t43.5 -6z" />
    <glyph glyph-name="Scaron" unicode="&#x160;" horiz-adv-x="529" 
d="M320 708h17l160 179l-13 13l-139 -87l-101 87l-15 -11zM28 -14h18l45 40q26 -17 66.5 -29t92.5 -12q37 0 77 13.5t72.5 40t53.5 66t21 91.5q0 36 -11.5 61.5t-31.5 46t-46.5 36.5t-56.5 32q-28 15 -51 28.5t-39.5 29t-25.5 34.5t-9 45q0 23 8.5 43t22.5 34.5t33.5 23
t41.5 8.5q24 0 43.5 -8.5t37 -28t34 -52.5t35.5 -82l20 3l12 201h-18l-42 -34q-22 16 -53 25.5t-69 9.5q-39 0 -77 -14.5t-68 -41t-48 -64.5t-18 -84q0 -36 11.5 -62t31 -46.5t46.5 -37t57 -32.5q28 -15 51.5 -28.5t40 -29t25.5 -35t9 -46.5q0 -46 -30 -79t-87 -33
q-28 0 -53 8.5t-47.5 30.5t-43 59.5t-40.5 95.5l-23 -2z" />
    <glyph glyph-name="scaron" unicode="&#x161;" horiz-adv-x="385" 
d="M234 522h17l160 179l-13 13l-139 -87l-101 87l-15 -11zM154 -11q44 0 78.5 12.5t58.5 33.5t36.5 48.5t12.5 57.5q0 38 -21.5 66t-64.5 54l-50 31q-28 17 -43.5 36t-15.5 43t14 42.5t43 18.5q19 0 38 -10q4 -42 22.5 -68t46.5 -26q21 0 35 14.5t14 38.5q0 16 -8 31.5
t-23 27.5t-38 19t-53 7q-39 0 -71.5 -12.5t-55 -33t-35 -46.5t-12.5 -53q0 -41 22.5 -68.5t64.5 -53.5l43 -28q35 -23 48.5 -42.5t13.5 -40.5q0 -31 -18 -48t-50 -17q-43 0 -78 22q15 48 1 79t-46 31q-23 0 -39.5 -18t-16.5 -47q0 -21 10.5 -39.5t30 -32t46.5 -21.5t60 -8z
" />
    <glyph glyph-name="brokenbar" unicode="&#xa6;" horiz-adv-x="269" 
d="M156 284l-3 208l3 209h-43l3 -209l-3 -208h43zM156 -241l-3 209l3 208h-43l3 -208l-3 -209h43z" />
    <glyph glyph-name="minus" unicode="&#x2212;" horiz-adv-x="505" 
d="M463 280l8 53h-418l-8 -53h418z" />
    <glyph glyph-name="twosuperior" unicode="&#xb2;" 
d="M25 -200h450v1000h-450v-1000z" />
    <glyph glyph-name="threesuperior" unicode="&#xb3;" 
d="M25 -200h450v1000h-450v-1000z" />
    <glyph glyph-name="onesuperior" unicode="&#xb9;" 
d="M25 -200h450v1000h-450v-1000z" />
    <glyph glyph-name="onequarter" unicode="&#xbc;" 
d="M25 -200h450v1000h-450v-1000z" />
    <glyph glyph-name="onehalf" unicode="&#xbd;" 
d="M25 -200h450v1000h-450v-1000z" />
    <glyph glyph-name="threequarters" unicode="&#xbe;" 
d="M25 -200h450v1000h-450v-1000z" />
    <glyph glyph-name="Eth" unicode="&#xd0;" horiz-adv-x="703" 
d="M-10 0h274q101 0 178.5 29t130 79t79.5 117t27 143q0 64 -23 114t-64 84.5t-99 52.5t-128 18h-273l-3 -17l89 -21l-40 -250h-87l-4 -40h85l-43 -271l-96 -21zM211 35l44 274h117l4 40h-115l40 254l55 -1q50 -1 86 -17.5t59.5 -45t34.5 -67t11 -84.5q0 -63 -15 -125
t-48 -111.5t-84.5 -80.5t-124.5 -34z" />
    <glyph glyph-name="multiply" unicode="&#xd7;" horiz-adv-x="505" 
d="M291 301l161 130l-30 38l-158 -129l-107 148l-42 -32l110 -148l-162 -130l30 -38l159 129l106 -148l43 32z" />
    <glyph glyph-name="Yacute" unicode="&#xdd;" horiz-adv-x="635" 
d="M394 700q42 35 83 67.5t63 57.5q17 20 18 41t-14 32q-16 11 -37 4t-36 -27q-20 -26 -42.5 -72t-46.5 -94zM121 0h312l2 17l-91 25l40 250l228 297l80 30l3 18h-208l-3 -16l65 -29l-182 -266l-104 270l82 24l3 17h-298l-3 -17l77 -29l136 -307l-38 -242l-98 -25z" />
    <glyph glyph-name="Thorn" unicode="&#xde;" horiz-adv-x="598" 
d="M-10 0h314l3 17l-96 21l16 103q22 -4 50 -6.5t52 -2.5q52 0 97.5 15t79 42t52.5 64.5t19 83.5q0 33 -13 63t-39 53t-66 36.5t-94 13.5q-20 0 -41 -2t-40 -5l16 103l103 21l2 17h-314l-3 -17l90 -21l-89 -561l-96 -21zM286 170h-13h-15t-15.5 0.5t-10.5 0.5l47 296
q3 0 10 0.5t15 0.5h16h12q57 -1 87 -36t30 -91q0 -73 -41 -121.5t-122 -49.5z" />
    <glyph glyph-name="eth" unicode="&#xf0;" horiz-adv-x="476" 
d="M184 -11q53 0 99 25.5t81 63.5q20 21 37 48.5t29 59t19 65.5t7 68q0 91 -39 168t-114 134l74 55l-22 32l-87 -64q-72 48 -176 76l-7 -16q42 -25 74 -48.5t58 -49.5l-84 -62l22 -32l14 10.5t30.5 22.5t30.5 22l14 10q23 -26 39 -53.5t29 -58.5q-55 -2 -106.5 -27.5
t-92 -67.5t-65 -96t-24.5 -113q0 -42 13 -74t35 -53.5t51 -33t61 -11.5zM218 33q-34 0 -58 33t-24 100q0 47 9.5 92.5t27 81t40.5 57t50 21.5q34 0 58 -33.5t24 -99.5q0 -48 -9.5 -93t-27 -80.5t-40.5 -57t-50 -21.5z" />
    <glyph glyph-name="yacute" unicode="&#xfd;" horiz-adv-x="480" 
d="M275 514q42 35 83 67.5t63 57.5q17 20 18 41t-14 32q-16 11 -37 4t-36 -27q-20 -26 -42.5 -72t-46.5 -94zM68 -219q30 0 57 15t56 44q42 41 83 109.5t80 150t75.5 167.5t69.5 163l-92 44h-8q-7 -40 -16.5 -86.5t-21 -95.5t-25 -98t-27.5 -94h-5q-8 51 -18 100t-21.5 91
t-22.5 74.5t-21 50.5q-13 25 -28.5 37.5t-41.5 12.5q-31 0 -63.5 -26.5t-61.5 -62.5l6 -8q23 8 38 11.5t24 3.5q14 0 23 -8t17 -28q11 -26 25 -68t28 -92.5t27.5 -106t24.5 -109.5q-26 -47 -60.5 -88t-67.5 -59q2 42 -15 71t-49 29q-26 0 -40 -18.5t-14 -43.5
q0 -33 22.5 -57.5t62.5 -24.5z" />
    <glyph glyph-name="thorn" unicode="&#xfe;" horiz-adv-x="489" 
d="M-70 -208h249l2 13l-76 31l27 158q23 -5 44 -5q54 0 106.5 28.5t94 74t66.5 102t25 112.5q0 38 -10 68t-27.5 50.5t-41 31t-49.5 10.5q-41 0 -72.5 -18.5t-63.5 -48.5l-3 4l56 337l-4 3l-177 -50v-10l64 -41l-136 -806l-71 -31zM235 42q-23 0 -45.5 13t-41.5 39l48 276
q19 12 38 18.5t41 6.5q41 0 62.5 -29.5t21.5 -85.5q0 -41 -9 -83t-25.5 -76.5t-39 -56.5t-50.5 -22z" />
    <glyph glyph-name="Delta" unicode="&#x394;" 
d="M25 -200h450v1000h-450v-1000z" />
    <glyph glyph-name="Omega" unicode="&#x3a9;" horiz-adv-x="585" 
d="M513 668q-11 25 -42 45t-84 20q-85 0 -146 -55q-82 -70 -104 -208l-3 -16l-112 -39l-3 -18h106l-56 -401q-9 -66 -19 -103t-22 -57q-17 32 -40.5 50t-52.5 18q-26 0 -41.5 -15.5t-15.5 -38.5q0 -26 24 -44.5t64 -18.5q29 0 57.5 12.5t54.5 38.5q22 22 39 48t30 57.5
t22.5 71t16.5 90.5l40 292h177l-58 -437q-6 -48 -13.5 -76t-18.5 -46q-15 24 -37.5 39.5t-48.5 15.5t-41.5 -15.5t-15.5 -39.5t21 -41.5t56 -17.5q29 0 57.5 14t54.5 40q49 49 71.5 115t34.5 157l39 292h121l8 51h-122l4 28q8 56 18 93.5t22 62.5t25.5 40.5t28.5 26.5
q18 -42 45 -61.5t53 -19.5q27 0 43 16.5t16 40.5q0 26 -26 46t-67 20q-68 0 -126 -43q-16 -12 -34 -30zM451 584q-25 -51 -36 -113l-3 -23h-179l3 23q18 121 50.5 174t87.5 55q4 0 7 -1t5 -2q-3 -53 16.5 -81t48.5 -32z" />
    </font>
</defs>
</svg>
